<?xml version="1.0" encoding="UTF-8"?>
<svg id="Layer_1" data-name="Layer 1" xmlns="http://www.w3.org/2000/svg" xmlns:xlink="http://www.w3.org/1999/xlink" viewBox="0 0 720 216">
  <defs>
    <style>
      .cls-1 {
        stroke-width: 3px;
      }

      .cls-1, .cls-2, .cls-3 {
        fill: none;
      }

      .cls-1, .cls-4, .cls-5, .cls-3 {
        stroke-miterlimit: 10;
      }

      .cls-1, .cls-5, .cls-3 {
        stroke: #010101;
      }

      .cls-6 {
        clip-path: url(#clippath);
      }

      .cls-2, .cls-7, .cls-8, .cls-9, .cls-10, .cls-11, .cls-12, .cls-13 {
        stroke-width: 0px;
      }

      .cls-4 {
        stroke: #231f20;
      }

      .cls-4, .cls-5 {
        stroke-width: 2px;
      }

      .cls-4, .cls-8 {
        fill: #f37326;
      }

      .cls-5, .cls-13 {
        fill: #010101;
      }

      .cls-7 {
        fill: #4f5050;
      }

      .cls-9 {
        fill: #fff;
      }

      .cls-10 {
        fill: #ffcd05;
      }

      .cls-11 {
        fill: #f68720;
      }

      .cls-12 {
        fill: #040404;
      }
    </style>
    <clipPath id="clippath">
      <rect class="cls-2" x="38" y="26.59" width="129.21" height="162.83"/>
    </clipPath>
  </defs>
  <g>
    <path class="cls-4" d="m236.89,93.5v45.05h38.12v-45.05h8.61v39.95c0,4.82-.85,8.09-2.55,9.8-1.7,1.72-4.91,2.57-9.63,2.57h-31.04c-4.75,0-7.99-.87-9.7-2.62-1.72-1.75-2.57-5-2.57-9.75v-39.95h8.76Z"/>
    <path class="cls-4" d="m310.85,145.83v-52.33h5.5l39.16,35c.89.79,1.84,1.75,2.85,2.87,1.01,1.12,2.04,2.36,3.09,3.71-.26-1.68-.46-3.44-.59-5.27-.13-1.83-.2-4.36-.2-7.6v-28.71h8.02v52.33h-4.9l-40.2-36.39c-.2-.16-.5-.43-.89-.79-1.98-1.78-3.45-3.48-4.41-5.1.2,1.58.35,3.28.45,5.07.1,1.8.15,3.92.15,6.36v30.84h-8.02Z"/>
    <path class="cls-4" d="m395.8,145.83v-52.33h8.76v52.33h-8.76Z"/>
    <path class="cls-4" d="m476,100.63h-36.29v37.92h36.29v-13.12l8.76,1.83v6.19c0,4.82-.84,8.09-2.52,9.8-1.68,1.72-4.9,2.57-9.65,2.57h-29.31c-4.75,0-7.99-.87-9.7-2.6-1.72-1.73-2.57-4.99-2.57-9.78v-27.58c0-4.79.86-8.04,2.57-9.78,1.72-1.73,4.95-2.6,9.7-2.6h29.31c4.75,0,7.97.86,9.65,2.57,1.68,1.72,2.52,4.98,2.52,9.8v4.95l-8.76,1.63v-11.83Z"/>
    <path class="cls-4" d="m507.05,105.88c0-4.75.85-8,2.55-9.75,1.7-1.75,4.94-2.62,9.73-2.62h36.19c4.72,0,7.93.87,9.63,2.6,1.7,1.73,2.55,4.99,2.55,9.78v27.58c0,4.82-.85,8.09-2.55,9.8-1.7,1.72-4.91,2.57-9.63,2.57h-36.19c-4.79,0-8.03-.87-9.73-2.62-1.7-1.75-2.55-5-2.55-9.75v-27.58Zm8.71,32.67h43.32v-37.92h-43.32v37.92Z"/>
  </g>
  <g>
    <path class="cls-13" d="m233.75,175.98c0-1.81.27-3.52.8-5.11.53-1.59,1.31-2.98,2.32-4.15,1.01-1.17,2.25-2.1,3.73-2.77,1.48-.67,3.14-1.01,5.01-1.01,1.46,0,2.73.19,3.8.58,1.07.38,1.97.86,2.7,1.43.73.57,1.33,1.19,1.8,1.87.47.67.82,1.31,1.06,1.9s.41,1.1.51,1.53c.09.43.14.67.14.72h-1.53c-.16-1.05-.5-1.98-1.01-2.81-.51-.83-1.15-1.53-1.92-2.11-.77-.58-1.62-1.02-2.56-1.33-.94-.3-1.94-.45-2.98-.45-1.63,0-3.08.31-4.36.94-1.28.63-2.36,1.47-3.24,2.53-.88,1.06-1.56,2.3-2.02,3.71-.47,1.42-.7,2.93-.7,4.53s.23,3.12.7,4.53c.47,1.42,1.14,2.66,2.02,3.71.88,1.06,1.96,1.9,3.24,2.53,1.28.63,2.73.94,4.36.94,1.21,0,2.34-.25,3.4-.75,1.06-.5,1.98-1.16,2.77-1.99.79-.83,1.42-1.78,1.9-2.86s.75-2.2.82-3.37h1.53c-.14,1.49-.51,2.86-1.1,4.12s-1.35,2.34-2.27,3.26c-.92.92-1.98,1.63-3.19,2.15-1.21.51-2.5.77-3.87.77-1.86,0-3.53-.34-5.01-1.01-1.48-.67-2.72-1.6-3.73-2.77-1.01-1.17-1.79-2.56-2.32-4.15-.54-1.59-.8-3.3-.8-5.11Z"/>
    <path class="cls-13" d="m278.43,188.43h-1.33v-3.84h-.07c-.23.67-.56,1.27-.99,1.8-.43.52-.93.97-1.5,1.34-.57.37-1.19.65-1.87.84-.67.19-1.36.28-2.06.28-1.05,0-1.94-.13-2.67-.38-.73-.26-1.33-.59-1.8-1.01s-.83-.89-1.1-1.41-.46-1.05-.58-1.59c-.12-.53-.19-1.05-.21-1.55-.02-.5-.04-.94-.04-1.31v-11.09h1.33v11.34c0,.47.04,1.03.1,1.69.07.66.27,1.3.61,1.92.34.62.84,1.15,1.52,1.59.67.44,1.63.66,2.86.66,1,0,1.9-.19,2.7-.56.8-.37,1.48-.89,2.04-1.55.56-.66.98-1.45,1.27-2.37.29-.92.44-1.92.44-3.02v-9.7h1.33v17.93Z"/>
    <path class="cls-13" d="m288.19,182.47c.05.84.23,1.58.56,2.21.33.64.75,1.19,1.27,1.64.52.45,1.13.8,1.83,1.03.7.23,1.45.35,2.27.35.58,0,1.2-.05,1.87-.16.66-.1,1.28-.3,1.85-.58.57-.28,1.04-.67,1.41-1.17.37-.5.56-1.13.56-1.9,0-1-.3-1.76-.91-2.27-.6-.51-1.37-.91-2.28-1.19-.92-.28-1.91-.51-2.96-.68s-2.05-.44-2.96-.78-1.68-.84-2.28-1.48c-.6-.64-.91-1.57-.91-2.81,0-.88.2-1.62.59-2.21.4-.59.9-1.06,1.52-1.41.62-.35,1.31-.6,2.08-.75.77-.15,1.53-.23,2.3-.23.93,0,1.8.1,2.62.31.81.21,1.52.55,2.11,1.01.59.47,1.06,1.06,1.39,1.78.34.72.51,1.59.51,2.62h-1.33c0-.81-.13-1.51-.4-2.09-.27-.58-.64-1.05-1.12-1.41-.48-.36-1.04-.63-1.69-.8-.65-.17-1.35-.26-2.09-.26-.61,0-1.22.06-1.83.17-.62.12-1.17.31-1.66.59s-.89.64-1.2,1.08c-.31.44-.47.98-.47,1.6,0,.72.17,1.3.52,1.74.35.44.81.8,1.38,1.06.57.27,1.21.48,1.92.65.71.16,1.42.33,2.15.49.88.16,1.71.35,2.49.58.78.22,1.45.52,2.02.91.57.38,1.02.88,1.34,1.48.33.6.49,1.37.49,2.3,0,.98-.22,1.78-.66,2.41-.44.63-1,1.13-1.67,1.52-.67.38-1.42.65-2.25.8-.83.15-1.63.23-2.42.23-1.02,0-1.97-.13-2.84-.4-.87-.27-1.63-.67-2.28-1.22-.65-.55-1.16-1.21-1.53-2.01-.37-.79-.57-1.71-.59-2.76h1.33Z"/>
    <path class="cls-13" d="m316.16,171.65h-3.91v12.52c0,.72.08,1.29.24,1.71.16.42.41.74.75.96.34.22.74.35,1.22.4.48.05,1.03.06,1.66.04v1.15c-.67.05-1.33.04-1.97-.02-.64-.06-1.2-.23-1.69-.52-.49-.29-.88-.73-1.17-1.31-.29-.58-.41-1.38-.37-2.41v-12.52h-3.31v-1.15h3.31v-5.58h1.33v5.58h3.91v1.15Z"/>
    <path class="cls-13" d="m322.51,179.47c0-1.28.18-2.48.54-3.61.36-1.13.89-2.12,1.59-2.98.7-.86,1.56-1.54,2.58-2.04,1.02-.5,2.2-.75,3.52-.75s2.5.25,3.52.75c1.02.5,1.88,1.18,2.58,2.04.7.86,1.23,1.85,1.59,2.98.36,1.13.54,2.33.54,3.61s-.18,2.49-.54,3.63c-.36,1.14-.89,2.13-1.59,2.98-.7.85-1.56,1.52-2.58,2.02-1.02.5-2.2.75-3.52.75s-2.5-.25-3.52-.75c-1.02-.5-1.88-1.17-2.58-2.02-.7-.85-1.23-1.84-1.59-2.98-.36-1.14-.54-2.35-.54-3.63Zm1.33,0c0,1.07.15,2.1.45,3.09.3.99.74,1.87,1.33,2.63s1.3,1.38,2.16,1.83c.86.45,1.85.68,2.96.68s2.1-.23,2.96-.68c.86-.45,1.58-1.06,2.16-1.83.58-.77,1.02-1.64,1.33-2.63.3-.99.45-2.02.45-3.09s-.15-2.1-.45-3.09c-.3-.99-.74-1.87-1.33-2.63-.58-.77-1.3-1.38-2.16-1.83-.86-.45-1.85-.68-2.96-.68s-2.1.23-2.96.68c-.86.45-1.58,1.06-2.16,1.83-.58.77-1.02,1.65-1.33,2.63-.3.99-.45,2.02-.45,3.09Z"/>
    <path class="cls-13" d="m347.35,170.5h1.33v3.66h.07c.14-.56.38-1.09.73-1.59.35-.5.77-.94,1.27-1.31.5-.37,1.06-.66,1.67-.87.62-.21,1.26-.31,1.94-.31.86,0,1.6.11,2.23.33s1.16.51,1.6.87c.44.36.79.77,1.05,1.22.26.45.43.91.52,1.38h.07c.53-1.26,1.25-2.2,2.15-2.84.89-.64,2.08-.96,3.54-.96.81,0,1.56.12,2.25.37s1.28.62,1.78,1.12c.5.5.89,1.13,1.17,1.9s.42,1.67.42,2.72v12.24h-1.33v-12.28c0-1.14-.17-2.03-.52-2.69-.35-.65-.76-1.15-1.24-1.48-.48-.34-.95-.55-1.43-.63-.48-.08-.84-.12-1.1-.12-.81,0-1.56.14-2.25.42-.69.28-1.28.7-1.78,1.26-.5.56-.89,1.25-1.17,2.08-.28.83-.42,1.77-.42,2.84v10.6h-1.33v-12.28c0-1.12-.17-2.01-.51-2.67s-.73-1.16-1.19-1.48c-.45-.33-.92-.53-1.39-.63-.48-.09-.85-.14-1.13-.14-.63,0-1.28.13-1.95.38-.67.26-1.29.65-1.85,1.19-.56.54-1.01,1.22-1.36,2.06s-.52,1.83-.52,2.96v10.6h-1.33v-17.93Z"/>
    <path class="cls-13" d="m411.73,170.64c-.05-1.07-.27-2-.68-2.79-.41-.79-.96-1.45-1.66-1.99-.7-.53-1.53-.94-2.49-1.2-.96-.27-2.02-.4-3.16-.4-.7,0-1.45.08-2.25.24-.8.16-1.55.45-2.23.85-.69.41-1.25.95-1.69,1.64-.44.69-.66,1.54-.66,2.56s.24,1.81.73,2.44c.49.63,1.13,1.13,1.92,1.52.79.38,1.7.69,2.72.92,1.02.23,2.06.45,3.1.66,1.07.21,2.11.46,3.12.75,1.01.29,1.92.69,2.72,1.19.8.5,1.45,1.15,1.94,1.95.49.8.73,1.81.73,3.02,0,1.3-.28,2.39-.84,3.28-.56.88-1.26,1.6-2.11,2.16-.85.56-1.79.96-2.83,1.2-1.03.24-2.03.37-2.98.37-1.46,0-2.84-.16-4.12-.47-1.28-.31-2.4-.83-3.35-1.53-.95-.71-1.7-1.62-2.25-2.74-.55-1.12-.81-2.48-.79-4.08h1.53c-.07,1.37.13,2.53.59,3.47.47.94,1.11,1.72,1.94,2.32.83.6,1.8,1.04,2.91,1.31,1.12.27,2.29.4,3.52.4.74,0,1.54-.09,2.39-.28.85-.19,1.63-.5,2.34-.94.71-.44,1.3-1.02,1.78-1.74.48-.72.72-1.63.72-2.72s-.24-1.9-.73-2.56c-.49-.66-1.13-1.2-1.94-1.6-.8-.41-1.71-.73-2.72-.98-1.01-.24-2.05-.47-3.12-.68-1.05-.21-2.08-.45-3.1-.73s-1.93-.66-2.72-1.13c-.79-.48-1.43-1.09-1.92-1.85-.49-.76-.73-1.73-.73-2.91s.25-2.2.75-3.05c.5-.85,1.15-1.53,1.95-2.06s1.7-.91,2.7-1.15c1-.24,1.99-.37,2.96-.37,1.3,0,2.52.15,3.64.44,1.13.29,2.12.74,2.96,1.36.85.62,1.53,1.41,2.04,2.39.51.98.8,2.15.87,3.52h-1.53Z"/>
    <path class="cls-13" d="m421.6,179.47c0-1.28.18-2.48.54-3.61.36-1.13.89-2.12,1.59-2.98.7-.86,1.56-1.54,2.58-2.04,1.02-.5,2.2-.75,3.52-.75s2.5.25,3.52.75c1.02.5,1.88,1.18,2.58,2.04.7.86,1.23,1.85,1.59,2.98.36,1.13.54,2.33.54,3.61s-.18,2.49-.54,3.63c-.36,1.14-.89,2.13-1.59,2.98-.7.85-1.56,1.52-2.58,2.02-1.02.5-2.2.75-3.52.75s-2.5-.25-3.52-.75c-1.02-.5-1.88-1.17-2.58-2.02-.7-.85-1.23-1.84-1.59-2.98-.36-1.14-.54-2.35-.54-3.63Zm1.33,0c0,1.07.15,2.1.45,3.09.3.99.74,1.87,1.33,2.63s1.3,1.38,2.16,1.83c.86.45,1.85.68,2.96.68s2.1-.23,2.96-.68c.86-.45,1.58-1.06,2.16-1.83.58-.77,1.02-1.64,1.33-2.63.3-.99.45-2.02.45-3.09s-.15-2.1-.45-3.09c-.3-.99-.74-1.87-1.33-2.63-.58-.77-1.3-1.38-2.16-1.83-.86-.45-1.85-.68-2.96-.68s-2.1.23-2.96.68c-.86.45-1.58,1.06-2.16,1.83-.58.77-1.02,1.65-1.33,2.63-.3.99-.45,2.02-.45,3.09Z"/>
    <path class="cls-13" d="m448.04,163.53v24.9h-1.33v-24.9h1.33Z"/>
    <path class="cls-13" d="m471.69,188.43h-1.33v-3.84h-.07c-.23.67-.56,1.27-.99,1.8-.43.52-.93.97-1.5,1.34-.57.37-1.19.65-1.87.84-.67.19-1.36.28-2.06.28-1.05,0-1.94-.13-2.67-.38-.73-.26-1.33-.59-1.8-1.01s-.83-.89-1.1-1.41-.46-1.05-.58-1.59c-.12-.53-.19-1.05-.21-1.55-.02-.5-.04-.94-.04-1.31v-11.09h1.33v11.34c0,.47.04,1.03.1,1.69.07.66.27,1.3.61,1.92.34.62.84,1.15,1.52,1.59.67.44,1.63.66,2.86.66,1,0,1.9-.19,2.7-.56.8-.37,1.48-.89,2.04-1.55.56-.66.98-1.45,1.27-2.37.29-.92.44-1.92.44-3.02v-9.7h1.33v17.93Z"/>
    <path class="cls-13" d="m487.41,171.65h-3.91v12.52c0,.72.08,1.29.24,1.71.16.42.41.74.75.96.34.22.74.35,1.22.4.48.05,1.03.06,1.66.04v1.15c-.67.05-1.33.04-1.97-.02-.64-.06-1.2-.23-1.69-.52-.49-.29-.88-.73-1.17-1.31-.29-.58-.41-1.38-.37-2.41v-12.52h-3.31v-1.15h3.31v-5.58h1.33v5.58h3.91v1.15Z"/>
    <path class="cls-13" d="m495.4,167.12v-3.59h1.33v3.59h-1.33Zm0,21.31v-17.93h1.33v17.93h-1.33Z"/>
    <path class="cls-13" d="m505.34,179.47c0-1.28.18-2.48.54-3.61.36-1.13.89-2.12,1.59-2.98.7-.86,1.56-1.54,2.58-2.04,1.02-.5,2.2-.75,3.52-.75s2.5.25,3.52.75c1.02.5,1.88,1.18,2.58,2.04.7.86,1.23,1.85,1.59,2.98.36,1.13.54,2.33.54,3.61s-.18,2.49-.54,3.63c-.36,1.14-.89,2.13-1.59,2.98-.7.85-1.56,1.52-2.58,2.02-1.02.5-2.2.75-3.52.75s-2.5-.25-3.52-.75c-1.02-.5-1.88-1.17-2.58-2.02-.7-.85-1.23-1.84-1.59-2.98-.36-1.14-.54-2.35-.54-3.63Zm1.33,0c0,1.07.15,2.1.45,3.09.3.99.74,1.87,1.33,2.63s1.3,1.38,2.16,1.83c.86.45,1.85.68,2.96.68s2.1-.23,2.96-.68c.86-.45,1.58-1.06,2.16-1.83.58-.77,1.02-1.64,1.33-2.63.3-.99.45-2.02.45-3.09s-.15-2.1-.45-3.09c-.3-.99-.74-1.87-1.33-2.63-.58-.77-1.3-1.38-2.16-1.83-.86-.45-1.85-.68-2.96-.68s-2.1.23-2.96.68c-.86.45-1.58,1.06-2.16,1.83-.58.77-1.02,1.65-1.33,2.63-.3.99-.45,2.02-.45,3.09Z"/>
    <path class="cls-13" d="m530.14,170.5h1.33v3.84h.07c.23-.67.56-1.27.99-1.8s.93-.97,1.5-1.34c.57-.37,1.19-.65,1.87-.84.67-.19,1.36-.28,2.06-.28,1.05,0,1.94.13,2.67.38.73.26,1.33.59,1.8,1.01s.83.89,1.1,1.41.46,1.05.58,1.59c.12.54.19,1.05.21,1.55.02.5.03.94.03,1.31v11.09h-1.33v-11.34c0-.44-.03-1-.1-1.67-.07-.67-.27-1.32-.61-1.94-.34-.62-.85-1.15-1.53-1.59-.69-.44-1.63-.66-2.84-.66-1.02,0-1.93.19-2.72.56-.79.37-1.47.89-2.02,1.55-.56.66-.98,1.45-1.27,2.37-.29.92-.44,1.92-.44,3.02v9.7h-1.33v-17.93Z"/>
    <path class="cls-13" d="m554.1,182.47c.05.84.23,1.58.56,2.21.33.64.75,1.19,1.27,1.64.52.45,1.13.8,1.83,1.03.7.23,1.45.35,2.27.35.58,0,1.2-.05,1.87-.16.66-.1,1.28-.3,1.85-.58.57-.28,1.04-.67,1.41-1.17.37-.5.56-1.13.56-1.9,0-1-.3-1.76-.91-2.27-.6-.51-1.37-.91-2.28-1.19-.92-.28-1.91-.51-2.96-.68s-2.05-.44-2.96-.78-1.68-.84-2.28-1.48c-.6-.64-.91-1.57-.91-2.81,0-.88.2-1.62.59-2.21.4-.59.9-1.06,1.52-1.41.62-.35,1.31-.6,2.08-.75.77-.15,1.53-.23,2.3-.23.93,0,1.8.1,2.62.31.81.21,1.52.55,2.11,1.01.59.47,1.06,1.06,1.39,1.78.34.72.51,1.59.51,2.62h-1.33c0-.81-.13-1.51-.4-2.09-.27-.58-.64-1.05-1.12-1.41-.48-.36-1.04-.63-1.69-.8-.65-.17-1.35-.26-2.09-.26-.61,0-1.22.06-1.83.17-.62.12-1.17.31-1.66.59s-.89.64-1.2,1.08c-.31.44-.47.98-.47,1.6,0,.72.17,1.3.52,1.74.35.44.81.8,1.38,1.06.57.27,1.21.48,1.92.65.71.16,1.42.33,2.15.49.88.16,1.71.35,2.49.58.78.22,1.45.52,2.02.91.57.38,1.02.88,1.34,1.48.33.6.49,1.37.49,2.3,0,.98-.22,1.78-.66,2.41-.44.63-1,1.13-1.67,1.52-.67.38-1.42.65-2.25.8-.83.15-1.63.23-2.42.23-1.02,0-1.97-.13-2.84-.4-.87-.27-1.63-.67-2.28-1.22-.65-.55-1.16-1.21-1.53-2.01-.37-.79-.57-1.71-.59-2.76h1.33Z"/>
  </g>
  <g>
    <g>
      <path class="cls-5" d="m228.47,68.87l2.36-4.98c3.32,3,9.01,5.17,14.75,5.17,7.73,0,11.05-3,11.05-6.9,0-10.92-27.08-4.02-27.08-20.63,0-6.9,5.37-12.77,17.12-12.77,5.24,0,10.67,1.41,14.37,3.96l-2.11,5.11c-3.9-2.49-8.3-3.64-12.26-3.64-7.6,0-10.86,3.19-10.86,7.09,0,10.92,27.08,4.09,27.08,20.5,0,6.83-5.49,12.71-17.31,12.71-6.83,0-13.54-2.3-17.12-5.62Z"/>
      <path class="cls-5" d="m295.22,72c-1.85,1.6-4.66,2.36-7.41,2.36-6.83,0-10.73-3.77-10.73-10.6v-18.59h-5.75v-5.05h5.75v-7.41h6.13v7.41h9.71v5.05h-9.71v18.33c0,3.64,1.92,5.68,5.3,5.68,1.79,0,3.51-.57,4.79-1.6l1.92,4.41Z"/>
      <path class="cls-5" d="m325.69,39.81v5.94c-.51-.06-.96-.06-1.41-.06-6.58,0-10.67,4.02-10.67,11.43v16.86h-6.13v-33.85h5.88v5.68c2.17-3.96,6.39-6,12.33-6Z"/>
      <path class="cls-5" d="m364.85,53.54v20.44h-5.81v-4.47c-2.04,3.07-5.81,4.85-11.11,4.85-7.67,0-12.52-4.09-12.52-9.96,0-5.43,3.51-9.9,13.6-9.9h9.71v-1.21c0-5.17-3-8.18-9.07-8.18-4.02,0-8.11,1.41-10.73,3.64l-2.56-4.6c3.51-2.81,8.56-4.34,13.99-4.34,9.26,0,14.5,4.47,14.5,13.73Zm-6.13,10.09v-4.73h-9.45c-6.07,0-7.79,2.36-7.79,5.24,0,3.39,2.81,5.49,7.47,5.49s8.24-2.11,9.77-6Z"/>
      <path class="cls-5" d="m400.11,72c-1.85,1.6-4.66,2.36-7.41,2.36-6.83,0-10.73-3.77-10.73-10.6v-18.59h-5.75v-5.05h5.75v-7.41h6.13v7.41h9.71v5.05h-9.71v18.33c0,3.64,1.92,5.68,5.3,5.68,1.79,0,3.51-.57,4.79-1.6l1.92,4.41Z"/>
      <path class="cls-5" d="m408.09,57.05c0-10.09,7.47-17.25,17.63-17.25s17.56,7.15,17.56,17.25-7.41,17.31-17.56,17.31-17.63-7.22-17.63-17.31Zm29,0c0-7.22-4.85-11.88-11.37-11.88s-11.43,4.66-11.43,11.88,4.92,11.94,11.43,11.94,11.37-4.73,11.37-11.94Z"/>
    </g>
    <g>
      <path class="cls-12" d="m582.95,107.62c-3.89,0-7.06-3.17-7.06-7.06s3.17-7.06,7.06-7.06,7.06,3.17,7.06,7.06-3.17,7.06-7.06,7.06Zm0-12.77c-3.15,0-5.71,2.56-5.71,5.71s2.56,5.71,5.71,5.71,5.71-2.56,5.71-5.71-2.56-5.71-5.71-5.71Z"/>
      <path class="cls-12" d="m583.45,96.75c.39,0,.74.06,1.05.18s.56.28.74.49c.18.2.32.44.41.69.09.26.14.53.14.83,0,.56-.13,1-.4,1.34-.27.34-.59.58-.98.72l1.52,3.16h-1l-1.38-2.98h-1.87v2.98h-.87v-7.42h2.64Zm-1.77,3.66h1.62c.53,0,.92-.12,1.19-.36.27-.24.41-.59.41-1.04,0-.48-.14-.85-.41-1.1-.28-.25-.66-.38-1.14-.38h-1.66v2.88Z"/>
    </g>
  </g>
  <rect class="cls-1" x="38.13" y="26.59" width="129.21" height="162.83"/>
  <g class="cls-6">
    <g>
      <g>
        <path class="cls-9" d="m167.34,80.1v40.14c-.53.05-1.04.07-1.54.07-3.58,0-6.45-1.01-8.76-3.08-5-4.5-6.94-11-8.07-16.13-.72-5.89.63-10.95,3.88-14.64,3.29-3.72,8.5-5.99,14.49-6.36Z"/>
        <path class="cls-11" d="m167.34,153.51v19.89c-.49,1.13-.98,2.26-1.46,3.39-1.81,4.2-3.65,8.5-5.76,12.62h-11.28c6.32-8.66,10.51-18.77,14.85-29.25l.39-.95c.97-2.03,2.05-3.92,3.26-5.7Z"/>
        <path class="cls-11" d="m42.5,26.4h36.12c-6.66,2.79-13.79,5.08-21.66,7.5-6.78,2.09-14.04,4.32-18.96,8.66v-15.56c1.51-.2,3.02-.4,4.5-.6Z"/>
        <path class="cls-10" d="m96.05,26.4h14.54c-2.12,3.84-9.15,9.67-11.8,11.85-.58.47-.99.81-1.18.98-12.39,11.39-22.8,25.81-31.82,44.1-1.01,2.04-2.07,3.57-3.18,4.6s-2.27,1.54-3.48,1.54c-7.85,0-15.96-21.51-17.72-29.66-1.45-16,17.26-20.74,32.29-24.56,4.21-1.07,8.19-2.08,11.25-3.24,2.03-.76,4.45-2.07,7.02-3.45,1.33-.72,2.7-1.46,4.08-2.16Z"/>
        <path class="cls-10" d="m167.34,120.69v14.83c-1.06.54-2.09,1.04-3.11,1.53-5.52,2.67-10.74,5.2-16.62,11.15-3.86,4.37-3.54,8.78-3.23,13.04.21,2.78.4,5.4-.49,8.03-2.37,7-6.44,12.64-11.74,16.3-1.37.95-3.15,1.92-5.08,2.66-1.52.59-3.14,1.02-4.74,1.18h-2.5c-2.99-.33-5.06-1.96-6.14-4.87-.8-13.76,10.86-22.38,21.16-29.98.94-.7,1.87-1.39,2.79-2.07,8-6.02,7.27-11.06,5.93-20.21l-.07-.48c-.99-6.79-2.48-13.44-4.19-20.8-3.4-14.69-5.66-30.94,10.67-37.77,5.33-2.24,11.3-3.49,17.36-3.66v10.08c-6.12.37-11.45,2.71-14.82,6.52-3.35,3.78-4.73,8.96-3.99,15,1.14,5.23,3.12,11.81,8.22,16.39,2.35,2.12,5.4,3.2,9.05,3.2.5,0,1.01-.02,1.54-.07Z"/>
        <path class="cls-7" d="m79.76,26.4h15.31c-1.13.58-2.24,1.18-3.32,1.76-2.55,1.38-4.96,2.68-6.96,3.43-3.04,1.15-7,2.16-11.2,3.22-14.63,3.72-32.7,8.3-32.7,23.28h-2.89v-14.91c4.86-4.47,12.23-6.74,19.09-8.85,8.27-2.54,15.72-4.94,22.67-7.93Z"/>
        <path class="cls-7" d="m111.06,26.4h16.09c-3.68,5.76-10.88,10.27-16.76,13.95-1.85,1.16-3.6,2.25-5.09,3.29-8.55,5.92-23.33,18.5-26.33,36.23-.7,4.08-.07,8.77.54,13.3,1.31,9.75,2.54,18.96-7.9,23.29-3.58,1.48-7.53,2.27-11.43,2.27h-.01c-9.64,0-16.9-4.68-19.41-12.52-1.49-4.65-1.9-9.62-2.29-14.43-.14-1.69-.28-3.42-.47-5.14v-28.55h2.89c0,.58.02,1.18.08,1.79,1.32,6.11,9.52,30.04,18.16,30.04,2.59,0,4.97-2.15,7.06-6.39,9-18.24,19.38-32.62,31.73-43.96.18-.17.58-.51,1.15-.98,2.97-2.45,9.96-8.23,11.99-12.19Z"/>
        <path class="cls-7" d="m167.34,136.02v16.69c-1.36,1.96-2.59,4.06-3.67,6.32l-.39.96c-4.37,10.55-8.59,20.74-14.99,29.42h-23.39c2.85-.74,5.57-2.14,7.5-3.47,5.39-3.72,9.51-9.44,11.92-16.53.91-2.71.71-5.5.51-8.2-.31-4.17-.62-8.48,3.11-12.7,5.82-5.89,10.76-8.28,16.49-11.06.95-.46,1.92-.93,2.91-1.43Z"/>
        <path class="cls-7" d="m167.34,60.71v8.41c-6.11.17-12.15,1.43-17.54,3.69-16.65,6.97-14.37,23.42-10.92,38.29,1.7,7.35,3.19,13.99,4.18,20.77l.07.48c1.36,9.27,2.04,13.92-5.76,19.78-.91.68-1.84,1.37-2.79,2.07-10.39,7.68-22.17,16.38-21.34,30.4l.02.07c.87,2.37,2.42,3.96,4.53,4.74h-28.71c.97-5.6,2.89-11.06,5.68-16.12,3.91-7.11,9.89-12.65,15.66-18.02,6.58-6.11,13.38-12.43,17.1-21.04,4.22-9.79,2.83-20.68,1.14-29.07-.2-.97-.4-1.96-.62-2.96-1.73-8.17-3.69-17.43.73-24.91,7.97-13.5,28.44-16.13,38.57-16.58Z"/>
        <path class="cls-11" d="m127.7,26.4h20.09c-2.54,7.34-9.8,11.16-16.85,14.88l-2.31,1.22c-15.27,8.04-36.18,19.05-35.34,40.11.19,4.81,1.45,9.44,2.68,13.92,1.23,4.5,2.5,9.15,2.62,13.86.17,7.25-4.15,12.02-8.99,16.65l-.05.06c-4.5,4.89-12.59,7.84-19.74,10.44-2.44.89-4.75,1.73-6.84,2.61-2.32.99-4.71,2.26-7.24,3.61-5.84,3.1-11.87,6.31-17.57,6.31h-.16v-58.49c.01.08.01.16.02.24.4,4.83.81,9.82,2.31,14.53,2.58,8.03,10,12.82,19.84,12.82h.01c3.96,0,7.97-.79,11.6-2.3,10.76-4.46,9.44-14.27,8.17-23.76-.6-4.5-1.22-9.15-.54-13.16,2.98-17.57,17.66-30.06,26.14-35.94,1.49-1.03,3.23-2.12,5.07-3.28,6.02-3.76,13.4-8.38,17.08-14.33Z"/>
        <path class="cls-11" d="m167.34,52.25v8.01c-10.2.46-30.87,3.11-38.96,16.8-4.51,7.63-2.53,16.98-.78,25.23.22,1,.42,1.99.62,2.96,1.67,8.33,3.06,19.13-1.11,28.8-3.68,8.53-10.45,14.81-16.99,20.89-5.8,5.39-11.8,10.96-15.75,18.13-2.83,5.13-4.76,10.66-5.73,16.34h-16.57c2.66-8.12,5.71-15.09,9.24-21.18,4.21-7.25,10.99-12.43,17.54-17.45,6.93-5.31,14.11-10.81,18.55-18.84,4.27-7.7,5.26-16.33,3.12-27.14-.39-1.98-.89-4.04-1.38-6.04-1.77-7.23-3.6-14.7-1.15-21.48,6.12-16.9,29.92-21.39,45.66-24.37l.83-.15c.95-.18,1.9-.35,2.86-.51Z"/>
        <path class="cls-13" d="m429.17,263.89v.47c-.85.34-1.67.71-2.39,1.13-4.34,2.53-8.19,5.67-11.06,8.11-.73.62-1.47,1.25-2.2,1.88-6.39,5.47-12.99,11.12-20.56,15.13-7.54,3.98-16.13,6.14-24.28,8.01-4.1.94-9.71,2.23-15.06,2.23-2.11,0-4.18-.2-6.1-.7-8.43-2.2-7.08-11.63-6.09-18.51.09-.64.18-1.27.26-1.87.33-2.52.74-5.08,1.14-7.56,1.27-7.92,2.58-16.1,1.55-24.21-.76-6.1-2.3-13.67-7.36-18.08-5.49-4.77-14.54-4.29-21.81-3.91-1.16.06-2.28.12-3.34.15-.83.03-1.77.07-2.78.11-11.19.47-32,1.34-40.97-7.13-2.77-2.62-4.21-5.97-4.28-9.97-.16-8.88,6.2-17.01,10.01-21.06,2.82-3.03,12.76-12.86,21.55-12.4.69.03,1.35.06,2.01.09,7.07.33,12.65.59,19.65,4.06,9.03,4.48,15.65,12.34,21.15,19.36.33.41.66.84.99,1.26,2.02,2.61,4.12,5.31,6.59,7.5,2.02,1.79,4.09,2.4,6.28,3.04.94.27,1.91.56,2.93.94,8.75.81,17.64-.07,26.22-.91,2.76-.28,5.61-.56,8.41-.78,3.8-.3,7.61-.58,11.41-.87,9.24-.69,18.72-1.41,28.13-2.35v.45c-9.4.94-18.87,1.65-28.09,2.35-3.81.28-7.61.56-11.41.87-2.81.22-5.65.5-8.4.77-8.62.86-17.54,1.74-26.34.92l-.06-.02c-1.01-.38-1.99-.67-2.93-.94-2.24-.66-4.35-1.28-6.45-3.13-2.5-2.22-4.61-4.93-6.65-7.56-.32-.42-.66-.85-.98-1.27-5.47-6.97-12.05-14.79-21.01-19.23-6.9-3.42-12.44-3.68-19.47-4.01-.65-.03-1.31-.06-2-.1-.18,0-.37-.01-.56-.01-8.48,0-17.91,9.35-20.65,12.27-3.76,4.01-10.04,12.04-9.88,20.76.07,3.87,1.46,7.11,4.14,9.64,8.83,8.34,29.52,7.48,40.64,7.02,1.01-.05,1.95-.08,2.79-.12,1.05-.03,2.17-.09,3.33-.15,7.35-.39,16.5-.87,22.12,4.03,5.18,4.5,6.74,12.17,7.52,18.36,1.03,8.16-.29,16.38-1.56,24.33-.4,2.48-.81,5.04-1.14,7.55-.08.6-.17,1.23-.26,1.87-1.02,7.09-2.28,15.92,5.76,18.01,6.68,1.74,15.27-.22,20.96-1.53,8.12-1.86,16.67-4.01,24.16-7.97,7.53-3.98,14.11-9.62,20.48-15.07.73-.63,1.46-1.26,2.2-1.88,2.89-2.46,6.76-5.61,11.13-8.16.79-.46,1.68-.85,2.61-1.21Z"/>
        <path class="cls-13" d="m429.17,252.2v.54l-.27.18c-.9.59-1.69,1.11-2.33,1.48-5.17,2.99-9.57,5.99-13.46,9.2-3.2,2.62-6.14,5.59-9,8.45-4.91,4.93-9.97,10.02-16.39,13.5-4.58,2.49-12.91,6.26-21.21,6.26-1.3.01-2.59-.08-3.86-.29-11.46-1.81-12.56-11.26-12.04-21.2.56-10.59.43-20.76.29-31.54l-.03-2.75c-.12-9.83,4.57-15.16,15.67-17.8,24.59-3.99,44.29-4.79,62.63-2.44v.45c-18.32-2.34-37.99-1.56-62.54,2.43-10.85,2.58-15.43,7.77-15.32,17.35l.04,2.76c.13,10.78.26,20.96-.29,31.57-.51,9.73.55,18.97,11.66,20.73,9.35,1.48,19.54-3.07,24.79-5.92,6.35-3.45,11.4-8.52,16.28-13.43,2.87-2.87,5.82-5.84,9.03-8.48,3.91-3.22,8.33-6.24,13.53-9.23.62-.37,1.41-.89,2.3-1.48.17-.11.35-.23.52-.34Z"/>
        <path class="cls-13" d="m429.17,199.89v1.2c-6.66,2.48-13.93,3.42-21.04,4.33-.95.13-1.9.25-2.85.38-11.7,1.55-24.23,2.94-36.63,2.53-11.26-.38-18.83-3.53-26.13-10.86-1.26-1.27-2.5-2.55-3.73-3.82-5.56-5.74-10.81-11.16-17.58-15.26-17.04-10.33-34.07-8.7-47.97,4.55-7.87,7.51-16.19,18.88-15.95,28.24.11,4.05,1.8,7.53,5.04,10.31,10.47,9,25.34,8.86,39.72,8.72,4.96-.04,9.64-.09,14.04.25,12.01.91,19.24,5.66,22.09,14.53,2.32,7.19,1.39,13.82.4,20.84-.24,1.69-.49,3.45-.68,5.2l-.03.26-.22.14c-.9.6-1.73,4.39-2.27,6.91-.39,1.75-.72,3.27-1.08,4.12l-.36.87c-1.43,3.41-2.91,6.93-5.57,9.72-5.73,6-14.58,8.5-21.05,10.33-6.24,1.76-16.83,6.3-17.59,16.9-.6,8.38,2.04,15.85,4.84,23.75l.19.53c6.34,17.96,9.33,33.39,9,46.66h-1.12c.33-13.14-2.63-28.43-8.94-46.29l-.18-.52c-2.84-8.02-5.52-15.6-4.91-24.21.81-11.28,11.88-16.06,18.41-17.9,8.22-2.32,15.44-4.68,20.54-10.03,2.52-2.63,3.96-6.06,5.34-9.38l.37-.87c.32-.75.66-2.29,1.01-3.93.81-3.7,1.47-6.43,2.53-7.42.19-1.69.43-3.37.66-5,.97-6.89,1.89-13.4-.35-20.33-2.7-8.39-9.61-12.89-21.11-13.76-4.36-.34-9.02-.29-13.95-.24-13.91.12-29.68.27-40.46-8.99-3.49-3.01-5.32-6.75-5.43-11.14-.25-9.73,8.26-21.4,16.3-29.08,14.29-13.64,31.81-15.31,49.31-4.7,6.9,4.18,12.45,9.9,17.81,15.43,1.23,1.27,2.47,2.55,3.72,3.81,7.17,7.21,14.28,10.16,25.37,10.54,12.32.4,24.8-.97,36.46-2.53.94-.12,1.9-.25,2.85-.37,7.18-.92,14.52-1.88,21.18-4.42Z"/>
        <path class="cls-13" d="m429.17,167.17v.55c-.08-.06-.17-.12-.24-.18-.67-.48-1.24-.9-1.64-1.22-2.26-1.79-4.63-3.54-6.92-5.24-1.96-1.45-3.98-2.95-5.94-4.47-3.67-2.86-7.89-6.36-11.35-10.66-2.28-2.82-3.56-5.92-4.8-8.92-.72-1.73-1.46-3.51-2.38-5.26l-.03-.07c-.12-.78-.29-1.62-.46-2.51-1.27-6.72-3.01-15.91,4.68-18.84l.07-.02c6.25-.08,11.87,1.04,18.79,3.75,1.49.58,3.06,1.14,4.73,1.74,1.83.66,3.69,1.32,5.49,2.03v.48c-1.85-.73-3.76-1.41-5.64-2.09-1.67-.59-3.25-1.16-4.74-1.74-6.84-2.68-12.4-3.79-18.58-3.72-7.3,2.81-5.6,11.78-4.36,18.33.17.87.33,1.71.46,2.48.93,1.76,1.67,3.54,2.38,5.27,1.29,3.11,2.51,6.04,4.74,8.81,3.43,4.26,7.63,7.74,11.27,10.58,1.96,1.52,3.98,3.02,5.94,4.47,2.29,1.7,4.66,3.45,6.93,5.26.39.3.95.71,1.6,1.19Z"/>
        <path class="cls-13" d="m429.17,158.5v.53c-3.02-1.93-6.12-3.92-9.06-6.05-5.5-4-12.17-9.58-14.98-17.46-1.2-4.45-.7-8.66,1.32-11.28,1.52-1.98,3.8-2.96,6.73-2.94,3.95.03,8.18.93,13.32,2.83.86.32,1.75.72,2.67,1.15v.5c-.98-.46-1.92-.89-2.83-1.22-5.08-1.89-9.27-2.78-13.17-2.81-2.79-.01-4.93.9-6.36,2.76-1.91,2.48-2.39,6.65-1.25,10.88,2.76,7.74,9.36,13.27,14.81,17.22,2.86,2.07,5.86,4.01,8.8,5.89Z"/>
        <path class="cls-13" d="m429.17,111.73v.49c-14.93-7.02-28.9-14.62-39.74-25.24-.32-.31-.67-.66-1.05-1.03-5.66-5.6-17.44-17.24-26.41-16.33-2.84.28-5.21,1.82-7.06,4.57-6.59,9.82,3.76,17.17,12.9,23.65,3.4,2.41,6.61,4.7,8.53,6.87,5.74,6.52,8.69,14.81,11.54,22.83,2.55,7.17,5.18,14.59,9.81,20.77,3.79,5.07,8.69,9.1,13.43,13,2.18,1.79,4.44,3.65,6.57,5.6,3.94,3.58,11.26,10.25,11.11,17.45-.3,13.24-20.48,16.05-31.32,17.56-.65.09-1.26.17-1.82.25-15.81,2.29-33.86,3.76-47.95-7.85-2.61-2.15-5.14-4.35-7.59-6.47-9.68-8.39-18.83-16.32-31.65-20.8-16.74-5.85-32.25,1.08-47.44,21.19l-.3.39c-4.92,6.51-10.5,13.9-12.35,21.71-2.26,9.58,4.27,15.28,10.14,18.37,11.36,5.99,24.1,6.34,36.44,6.67,6.68.19,13.58.38,20.19,1.46,5.91.77,10.7,3.75,13.85,8.61,3.83,5.94,4.76,14,2.5,21.58-2.78,9.29-6.65,15.51-12.54,20.15-4.52,3.57-9.49,5.23-14.74,6.99-2.41.8-4.9,1.63-7.33,2.66-9.58,4.07-14.88,9.13-16.19,15.48l-.02.08-.06.05c-1.42,1.1-.71,7.36-.45,9.71.03.33.07.6.09.81.48,4.95,1.95,9.71,3.47,14.12.92,2.67,1.92,5.43,2.9,8.1,5.47,15.05,11.1,30.54,8.4,46.04h-.46c2.72-15.41-2.9-30.87-8.37-45.89-.97-2.67-1.98-5.43-2.9-8.1-1.52-4.44-3-9.23-3.49-14.23-.02-.2-.05-.47-.08-.8-.49-4.31-.8-8.86.54-10.06,1.38-6.47,6.76-11.62,16.45-15.73,2.44-1.03,4.94-1.86,7.35-2.67,5.22-1.75,10.15-3.4,14.62-6.91,5.81-4.58,9.63-10.73,12.38-19.93,2.23-7.45,1.31-15.38-2.45-21.2-3.07-4.75-7.75-7.66-13.53-8.42-6.59-1.08-13.48-1.27-20.14-1.45-12.39-.34-25.19-.69-36.64-6.72-8.62-4.55-12.21-11.08-10.36-18.87,1.86-7.9,7.72-15.66,12.43-21.88l.3-.4c15.31-20.28,31-27.25,47.93-21.34,12.91,4.52,22.09,12.47,31.8,20.89,2.45,2.12,4.98,4.32,7.59,6.46,13.94,11.5,31.88,10.03,47.59,7.76.57-.08,1.18-.16,1.83-.26,10.71-1.49,30.64-4.27,30.92-17.12.16-6.99-7.07-13.58-10.95-17.11-2.13-1.94-4.38-3.79-6.55-5.58-4.76-3.92-9.68-7.97-13.51-13.08-4.67-6.24-7.31-13.69-9.87-20.89-2.84-7.98-5.77-16.23-11.46-22.69-1.88-2.13-5.07-4.4-8.45-6.79-8.84-6.28-19.85-14.08-13.01-24.27,1.92-2.86,4.41-4.47,7.38-4.77,9.19-.93,21.06,10.82,26.77,16.46.38.37.73.72,1.05,1.03,10.74,10.53,24.61,18.09,39.43,25.07Z"/>
        <path class="cls-13" d="m429.17,106.67v.54c-1.27-.81-2.52-1.67-3.68-2.47-.97-.68-1.9-1.32-2.67-1.81-5.4-3.41-10.26-7.1-14.45-10.95-4.55-4.17-8.37-8.6-11.36-13.16-1.88-2.88-3.19-6.21-4.46-9.44-1.29-3.25-2.62-6.62-4.52-9.42-1.44-2.41-1.81-4.72-1.12-6.86,1.72-5.3,9.55-8.68,15.84-11.4,2.51-1.08,4.67-2.02,6.11-2.92,5.01-3.15,9.56-7.31,13.75-11.34,1.99-1.93,4.3-3.69,6.56-5.4v.56c-2.16,1.64-4.36,3.33-6.25,5.16-4.2,4.05-8.78,8.23-13.82,11.4-1.47.92-3.65,1.87-6.18,2.95-6.2,2.68-13.93,6.02-15.58,11.13-.65,2.01-.29,4.19,1.07,6.48,1.92,2.82,3.26,6.22,4.55,9.5,1.26,3.2,2.57,6.51,4.43,9.35,2.97,4.53,6.76,8.93,11.28,13.08,4.17,3.83,9.01,7.5,14.39,10.9.78.49,1.71,1.14,2.69,1.82,1.05.72,2.21,1.52,3.42,2.3Z"/>
        <path class="cls-13" d="m429.17,99.45v.57c-.68-.52-1.26-.97-1.76-1.32-3.9-2.73-7.2-5.52-10.1-8.5-3.12-3.22-13.15-14.4-10.99-23.44.9-8.19,5.98-13.98,12.03-20.17,2.27-2.39,4.5-4.9,6.66-7.32,1.27-1.43,2.55-2.86,3.85-4.28.1-.11.21-.24.31-.36v.68c-1.29,1.41-2.56,2.84-3.83,4.26-2.16,2.43-4.4,4.93-6.67,7.33-5.99,6.13-11.02,11.86-11.91,19.94-2.11,8.84,7.79,19.87,10.87,23.05,2.88,2.96,6.17,5.72,10.04,8.44.43.31.93.69,1.5,1.12Z"/>
        <path class="cls-13" d="m429.17,92.19v.55c-1.67-1.2-3.32-2.48-4.7-3.97-3.81-4.11-8.35-10.64-8.34-18.45.02-7.15,4.51-13.8,8.43-18.79,1.48-1.89,3.06-3.74,4.61-5.54v.69c-1.44,1.67-2.89,3.38-4.26,5.12-3.87,4.94-8.31,11.51-8.32,18.52-.02,7.67,4.45,14.1,8.2,18.14,1.29,1.39,2.82,2.59,4.38,3.73Z"/>
        <path class="cls-13" d="m429.17,80.62v1c-1.68-3.28-2.67-6.82-2.62-10.02.05-3.17.92-6.47,2.62-10.01v1.05c-1.41,3.16-2.13,6.11-2.17,8.96-.05,2.88.77,6.04,2.17,9.02Z"/>
        <path class="cls-13" d="m429.17,11.45v.5c-1.73.83-3.46,1.69-4.94,2.7-1.06.71-2.1,1.44-3.14,2.17-3.49,2.43-7.1,4.94-10.95,6.93-6.08,3.14-12.52,3.15-18.75,3.16-5.29.01-10.76.02-15.91,1.98-6.44.9-10.87,4.6-15.56,8.52-3.2,2.68-6.5,5.44-10.46,7.18-.84.16-1.69.24-2.52.24-3.12,0-6.17-1.08-8.98-3.18-4.76-3.56-8.23-9.65-8.86-15.53-1.19-11.21,6.48-20.72,13.24-29.12l.69-.85c4.82-5.99,8.46-10.61,11.8-14.99.94-1.24,1.89-2.63,2.9-4.09,2.62-3.8,5.32-7.73,8.56-10.16,6.61-8.96,16.9-15.03,31.46-18.55,12.43-3.01,22.64-6.41,31.42-10.49v.5c-8.77,4.06-18.94,7.44-31.31,10.43-14.47,3.49-24.68,9.51-31.23,18.4l-.05.05c-3.19,2.38-5.88,6.29-8.48,10.07-1.01,1.48-1.97,2.86-2.92,4.11-3.34,4.38-6.98,9.01-11.8,15l-.69.85c-6.71,8.33-14.32,17.77-13.14,28.79.61,5.76,4.02,11.73,8.68,15.22,3.46,2.59,7.3,3.58,11.1,2.88,3.85-1.7,7.13-4.45,10.3-7.1,4.53-3.79,9.22-7.71,15.74-8.61,5.18-1.97,10.69-1.98,16.02-2,6.17-.01,12.56-.02,18.55-3.11,3.82-1.97,7.42-4.48,10.89-6.9,1.05-.73,2.09-1.46,3.15-2.17,1.56-1.06,3.38-1.97,5.19-2.83Z"/>
        <path class="cls-13" d="m429.17-.15v.48c-3.12,1.1-6.29,2.6-9.24,4.02-1.99.95-3.86,1.84-5.59,2.56-8.68,3.57-16.48,5.37-25.3,5.84-.51.03-1.17.08-1.95.13-2.83.19-6.99.48-11.37.48-7.96,0-16.62-.94-19.27-5.09-1.22-1.91-1.03-4.37.56-7.29,6.18-16.5,16.8-30.41,29.1-38.12,9.3-5.82,20.1-9.46,30.54-12.98,4.15-1.39,8.38-2.82,12.52-4.39v.48c-4.1,1.55-8.28,2.96-12.38,4.34-10.41,3.51-21.18,7.14-30.44,12.93-12.23,7.66-22.77,21.49-28.94,37.93-1.52,2.8-1.71,5.09-.58,6.86,3.95,6.21,23.04,4.9,30.22,4.4.79-.05,1.46-.1,1.97-.12,8.76-.47,16.52-2.26,25.15-5.82,1.72-.71,3.59-1.6,5.57-2.55,3.01-1.44,6.24-2.98,9.43-4.09Z"/>
        <path class="cls-13" d="m414.36,170.88c4.41,5.28,5.84,10.25,4.25,14.76-2.13,6.02-10,10.92-21.05,13.09-14.96,2.93-34.17,4.55-49.95-9.1-15.96-13.82-30.67-25.6-49.02-29.7-16.97-3.81-29.31,11.97-39.23,24.65-.68.88-1.36,1.74-2.02,2.57-.65.83-1.38,1.73-2.16,2.7-6.41,7.92-17.14,21.19-15.51,30.96.57,3.41,2.54,6.12,6.03,8.31,14.52,9.1,34.59,9.79,49.25,10.3.74.03,1.49.05,2.28.07,8.57.23,19.23.53,25.29,7.37,4.37,4.94,5.61,12.53,3.21,19.81l-.05.14-.09.13c-1,1.48-1.69,2.99-2.42,4.58-1.11,2.42-2.25,4.92-4.51,7.19-2.9,2.91-6.47,5.38-10.6,7.34-3.27,1.56-6.71,2.71-10.04,3.83-4.19,1.41-8.51,2.86-12.43,5.1-12.03,6.87-14.8,20.42-8.24,40.28,1.22,3.66,2.61,7.31,4.08,11.18,5.54,14.55,11.26,29.56,7.02,44.78h-2.33c4.35-14.73-1.3-29.59-6.78-43.98-1.41-3.72-2.88-7.57-4.11-11.28-6.95-21.01-3.84-35.45,9.25-42.93,4.11-2.35,8.54-3.84,12.83-5.27,3.26-1.1,6.64-2.24,9.79-3.74,3.9-1.85,7.26-4.17,9.98-6.9,1.98-1.99,2.98-4.2,4.05-6.53.72-1.57,1.46-3.19,2.52-4.77,1.64-5.1,1.75-12.32-2.8-17.47-5.42-6.12-15.55-6.39-23.69-6.62-.78-.02-1.55-.04-2.29-.07-14.91-.51-35.33-1.22-50.36-10.64-4.01-2.51-6.38-5.82-7.05-9.84-1.79-10.77,8.91-24,15.98-32.75.77-.96,1.5-1.85,2.14-2.67.67-.84,1.34-1.69,2.02-2.57,10.31-13.17,23.13-29.56,41.48-25.46,18.86,4.23,33.8,16.18,50,30.2,11.74,10.16,26.56,12.81,48.05,8.59,10.26-2.01,17.5-6.36,19.37-11.63,1.3-3.71.01-7.94-3.86-12.57-2.86-3.43-6.2-6.53-9.44-9.53-3.56-3.3-7.24-6.7-10.36-10.62-5.15-6.43-8.4-13.87-11.53-21.05-.48-1.1-.96-2.2-1.45-3.3-3.69-8.33-8.27-14.26-14.41-18.67-4.6-3.3-9.57-5.17-14.83-7.15-2.8-1.06-5.69-2.15-8.53-3.47-10.05-4.71-8.86-12.77-7.59-21.29.07-.52.15-1.03.23-1.55,1.51-10.48-1.64-18.44-7.19-27.89-10.05-17.07-9.98-32.12.2-47.38,4.52-6.77,9.72-13.25,14.75-19.5,8.04-10,16.35-20.34,22.01-32.1.12-.25.25-.5.37-.75,1.47-2.98,2.31-5.07.62-6.99-2.07-2.35-5.37-3.79-8.56-5.18-1.37-.6-2.67-1.17-3.89-1.81-8.34-4.38-14.03-9.82-17.01-16.24h2.5c2.9,5.56,8.09,10.34,15.55,14.26,1.14.6,2.4,1.15,3.74,1.73,3.42,1.49,6.95,3.03,9.35,5.75,2.81,3.19,1.02,6.82-.29,9.47-.12.25-.25.5-.36.74-5.78,11.99-14.17,22.43-22.28,32.52-5.01,6.23-10.17,12.66-14.64,19.35-9.65,14.46-9.69,28.75-.13,44.99,5.64,9.6,9.07,18.26,7.47,29.35-.07.52-.15,1.04-.23,1.55-1.28,8.67-2.21,14.93,6.33,18.93,2.75,1.29,5.61,2.36,8.37,3.41,5.16,1.94,10.51,3.95,15.35,7.43,6.47,4.64,11.28,10.87,15.14,19.58.5,1.1.98,2.21,1.46,3.31,3.22,7.38,6.26,14.34,11.22,20.55,3.03,3.78,6.64,7.13,10.14,10.37,3.29,3.05,6.69,6.2,9.64,9.74Z"/>
        <path class="cls-13" d="m399.19,165.58c4.58,4.72,10.28,10.6,8.93,17.32-2.19,6.18-8.58,8.67-13.89,10.15-4.78,1.34-9.64,2.01-14.43,2.01-7.9,0-15.22-1.79-21.76-5.32-6.42-3.46-12.16-8.3-17.71-12.97-4.41-3.72-8.97-7.56-13.84-10.69-3.15-2.02-6.41-4-9.55-5.92-2.41-1.46-4.91-2.98-7.34-4.5-.88-.55-1.84-1.12-2.87-1.72-4.5-2.62-10.1-5.88-11.92-10.57l-.02-.05c-1.24-10.2,14.73-22.44,21.65-27.23,7.17-4.96,15.01-7.47,23.29-7.47,3.56,0,7.2.47,10.84,1.4,11.67,2.99,19.96,10.31,26.89,23.72,6.36,12.33,11.7,21.23,20.21,30.25.47.51.99,1.04,1.52,1.59Zm8.5,17.2c1.29-6.45-4.31-12.24-8.82-16.89-.53-.55-1.05-1.08-1.53-1.59-8.53-9.06-13.9-17.98-20.28-30.35-6.86-13.29-15.07-20.54-26.6-23.49-3.6-.93-7.21-1.4-10.73-1.4-8.19,0-15.94,2.49-23.03,7.4-6.86,4.74-22.65,16.83-21.47,26.78,1.78,4.52,7.29,7.73,11.73,10.32,1.02.6,1.99,1.16,2.88,1.72,2.42,1.52,4.92,3.04,7.33,4.5,3.15,1.92,6.41,3.9,9.57,5.92,4.89,3.15,9.46,7,13.88,10.72,5.53,4.66,11.25,9.48,17.63,12.93,6.47,3.49,13.72,5.27,21.55,5.27,4.75,0,9.57-.67,14.31-2,5.21-1.45,11.46-3.88,13.58-9.84Z"/>
        <path class="cls-13" d="m393.25,167.69c2.76,3.38,6.92,8.49,5.35,13.05-1.89,5.49-7.16,7.44-11.54,8.53-2.72.68-5.55,1.03-8.37,1.03h-.01c-7.2,0-14.47-2.19-21.05-6.34-5.63-3.56-10.99-7.78-16.18-11.85-3.56-2.8-7.25-5.7-10.98-8.35-1.24-.88-2.62-1.79-4.08-2.76-7.34-4.86-16.48-10.92-17.89-19.42.11-9.54,6.35-15.49,11.56-18.82,6.47-4.12,14.9-6.48,23.13-6.48,4.38,0,8.43.7,11.73,2.03,9.8,3.94,15.11,12.21,19.39,20.55,5.02,9.79,10.82,18.68,18.25,27.98.22.27.46.55.69.85Zm4.93,12.9c1.48-4.31-2.58-9.31-5.27-12.62-.24-.3-.48-.58-.69-.85-7.46-9.32-13.28-18.23-18.32-28.05-4.23-8.27-9.49-16.46-19.14-20.35-3.25-1.3-7.25-1.99-11.57-1.99-16.32,0-34.06,9.49-34.25,24.82,1.39,8.27,10.43,14.26,17.7,19.07,1.46.98,2.84,1.89,4.09,2.78,3.74,2.65,7.43,5.55,10.99,8.36,5.19,4.06,10.54,8.27,16.15,11.81,6.5,4.11,13.7,6.28,20.81,6.28,2.8,0,5.58-.34,8.27-1.01,4.28-1.07,9.41-2.96,11.23-8.25Z"/>
        <path class="cls-13" d="m381.77,165.67c3.34,4.73,4.34,9.49,2.67,12.72-1.39,2.72-4.56,4.15-9.15,4.15h-.01c-7.55,0-14.94-4.29-21.17-8.49-3.22-2.17-6.35-4.57-9.39-6.88-3.02-2.31-6.15-4.7-9.36-6.87-8.44-5.69-13.31-11.13-14.87-16.65v-.04s0-.04,0-.04c.63-13.41,12.34-19.52,22.94-19.52,3.37,0,6.66.57,9.79,1.71,10.32,5.51,15.5,15.77,20.51,25.69,2.44,4.83,4.97,9.84,8.05,14.22Zm2.28,12.52c1.59-3.08.6-7.67-2.64-12.26-3.11-4.41-5.64-9.43-8.09-14.28-4.98-9.86-10.12-20.05-20.29-25.48-3.06-1.11-6.3-1.67-9.61-1.67-10.39,0-21.85,5.96-22.49,19.06,1.54,5.4,6.34,10.76,14.68,16.37,3.22,2.17,6.35,4.57,9.38,6.88s6.16,4.7,9.37,6.87c5.81,3.91,13.44,8.41,20.92,8.41v.22s.01-.22.01-.22c4.41,0,7.44-1.35,8.76-3.9Z"/>
        <path class="cls-13" d="m367.62,159.32c1.04,3.66,1.94,6.82-2.07,9.12l-.06.04h-.06c-4.46-.24-8.96-1.79-14.14-4.88-.48-.28-.97-.58-1.47-.87-7.26-4.3-17.21-10.19-19.06-19.1-.33-2.83.38-5.22,2.07-7.13,2.35-2.64,6.64-4.21,11.48-4.21,2.89,0,5.63.56,7.72,1.58,9.06,4.45,13.02,15.87,15.21,24.07.12.47.25.93.38,1.38Zm-2.24,8.71c3.65-2.12,2.84-4.98,1.81-8.59-.13-.45-.26-.91-.39-1.39-2.16-8.11-6.07-19.41-14.97-23.77-2.02-.99-4.69-1.54-7.52-1.54-4.71,0-8.88,1.52-11.14,4.06-1.62,1.81-2.27,4.09-1.97,6.76,1.81,8.69,11.66,14.52,18.85,18.78.5.3.99.59,1.46.87,5.1,3.04,9.51,4.58,13.87,4.82Z"/>
        <path class="cls-13" d="m335.27-35.79c.26,6.05-3.91,12.94-7.26,18.47-.61,1.01-1.19,1.98-1.72,2.89l-1.47,2.52c-3.39,5.8-6.89,11.8-9.17,18.23-5.25,14.79-.75,27.46,4.03,40.88,1.02,2.89,2.08,5.87,3.05,8.88,2.77,8.67,2.09,17.46-1.87,24.1-3.61,6.06-9.62,10.03-17.38,11.47-3.85.71-8.08,1.07-12.56,1.07-12.52,0-26.95-2.83-39.58-7.78-13.75-5.39-29.8-16.94-33.62-33.2-.84-7.85,5.13-14.26,10.39-19.93,1.15-1.23,2.23-2.39,3.22-3.55,6.51-7.57,11.98-15.63,16.01-21.8,3.95-6.04,9.52-13.6,17.55-18.39,6.75-4.03,13.84-6.28,21.34-8.66l.95-.3c8.56-2.72,18.62-6.11,28.31-10.62.55-.26,1.51-.84,2.73-1.56,3.75-2.25,10.03-6,13.78-6,2.07,0,3.17,1.11,3.27,3.28Zm-7.64,18.24c3.32-5.48,7.44-12.3,7.19-18.22-.08-1.92-1.01-2.85-2.82-2.85-3.63,0-9.84,3.71-13.55,5.93-1.23.74-2.2,1.32-2.77,1.58-9.72,4.53-19.79,7.93-28.36,10.65l-.95.3c-7.48,2.37-14.55,4.61-21.25,8.61-7.9,4.73-13.23,11.88-17.4,18.26-4.05,6.18-9.52,14.25-16.05,21.85-1,1.16-2.08,2.32-3.23,3.56-5.2,5.59-11.09,11.93-10.28,19.54,3.78,16.07,19.7,27.51,33.35,32.86,12.57,4.93,26.94,7.76,39.41,7.76,4.46,0,8.66-.36,12.48-1.07,7.62-1.42,13.52-5.31,17.07-11.26,3.9-6.53,4.56-15.18,1.83-23.73-.96-3.01-2.02-5.99-3.05-8.87-4.79-13.49-9.33-26.23-4.03-41.18,2.3-6.47,5.81-12.49,9.21-18.31.5-.84.98-1.68,1.47-2.52.53-.91,1.11-1.88,1.73-2.89Z"/>
        <path class="cls-13" d="m328.84,197.82c3.79,6.01,4.35,10.92,1.84,15.96l-.06.07c-4.98,3.93-10.84,5.35-18.11,6.28-3.39.44-8.49,1.02-13.67,1.02-13.46,0-22.19-3.95-25.95-11.75l-.02-.08c-.66-12.25,8.37-23.68,21.47-27.18,2.18-.58,4.44-.87,6.71-.87,10.55,0,21.46,6.49,27.79,16.55Zm1.46,15.71c2.41-4.86,1.84-9.63-1.84-15.47-6.25-9.93-17.01-16.34-27.41-16.34-2.23,0-4.45.29-6.6.86-12.88,3.44-21.76,14.65-21.14,26.67,3.69,7.6,12.28,11.45,25.53,11.45,2.58,0,5.14-.14,7.47-.34,2.34-.2,4.45-.46,6.14-.67,7.18-.92,12.96-2.32,17.85-6.16Z"/>
        <path class="cls-13" d="m315.9-82.15c4.07,3.78,7.18,8.29,7.06,14.3-.31,15.79-12.02,29.93-31.33,37.84-3.68,1.51-7.62,2.84-11.44,4.13-12.31,4.17-25.04,8.48-32.64,19.58-2.44,3.55-4.69,7.37-6.87,11.06-6.75,11.45-13.74,23.3-27.07,28.82-3.86,1.6-7.02,2.34-9.92,2.34-4.32,0-8.27-1.7-12.41-5.36-7.57-6.68-12.27-13.84-13.98-21.28-1.4-8.38,2.73-15.79,12.63-22.66,2.39-1.66,5.02-3.22,7.56-4.72,9.82-5.82,19.98-11.84,18.93-25.23-.24-3.05-.86-6.13-1.47-9.12-.99-4.92-2.02-10.01-1.38-15.13.72-5.79,4.05-10.51,8.18-14.57h.64c-4.22,4.07-7.65,8.81-8.38,14.62-.63,5.05.39,10.1,1.38,14.99.61,3,1.23,6.1,1.48,9.18,1.07,13.67-9.21,19.75-19.15,25.64-2.54,1.51-5.16,3.06-7.53,4.71-9.74,6.76-13.82,14.03-12.45,22.2,1.68,7.34,6.34,14.42,13.83,21.03,4.06,3.59,7.92,5.26,12.12,5.26,2.84,0,5.94-.74,9.75-2.32,13.19-5.46,20.14-17.24,26.86-28.63,2.18-3.7,4.43-7.52,6.88-11.08,7.69-11.23,20.49-15.56,32.87-19.75,3.8-1.29,7.74-2.62,11.41-4.13,19.14-7.84,30.75-21.83,31.05-37.43.11-6.01-3.11-10.51-7.27-14.29h.66Z"/>
        <path class="cls-13" d="m320.26,200.96c.6,2.56.19,4.85-1.21,6.81-2.82,3.93-9.26,5.86-14.36,6.35-1.27.13-2.53.19-3.73.19-8.08,0-14.11-2.79-17.44-8.08l-.03-.08c-.84-4.09,0-7.84,2.43-10.83,3.27-4.03,9.4-6.52,16-6.52,7.15,0,16.23,3.18,18.34,12.16Zm-1.58,6.55c1.32-1.85,1.71-4.02,1.14-6.44-2.04-8.73-10.92-11.83-17.9-11.83-6.46,0-12.47,2.44-15.65,6.36-2.34,2.88-3.15,6.48-2.35,10.42,4.1,6.48,11.52,7.84,17.04,7.84,1.19,0,2.43-.06,3.69-.18,5-.49,11.31-2.36,14.03-6.17Z"/>
        <path class="cls-13" d="m316.73,64.63c.39,14.41-13.58,20.55-25.65,21.44-1.71.12-3.52.19-5.37.19h-.01c-21.96-.01-55.82-9.13-59.08-34.25-1.49-8.63,6.55-18.47,13.01-26.38,1.7-2.08,3.31-4.05,4.53-5.75l1.13-1.59c6.91-9.66,14.05-19.66,24.87-25.6,5.45-2.99,17.18-8.05,26.6-8.05,4.02,0,7.23.92,9.55,2.72,4.15,3.81,2.82,11,1.75,16.78-.23,1.23-.44,2.38-.58,3.38-.88,6.46-.81,13.75.19,20.02.85,5.34,2.58,10.58,4.26,15.66,2.26,6.86,4.61,13.97,4.8,21.43Zm-25.69,20.99c11.89-.87,25.62-6.89,25.25-20.98-.2-7.39-2.53-14.46-4.79-21.31-1.68-5.08-3.41-10.34-4.27-15.72-1.01-6.31-1.08-13.65-.19-20.15.13-1.02.35-2.17.57-3.4,1.06-5.67,2.36-12.73-1.59-16.36-2.22-1.73-5.34-2.61-9.26-2.61-9.33,0-20.97,5.02-26.38,7.99-10.74,5.9-17.85,15.85-24.72,25.47l-1.13,1.59c-1.23,1.72-2.84,3.69-4.55,5.78-6.41,7.83-14.37,17.58-12.91,26.02,3.22,24.85,36.83,33.86,58.63,33.87h.01c1.84,0,3.64-.07,5.33-.19Z"/>
        <path class="cls-13" d="m304.65-82.15c5.86,6.02,8.29,12.5,8.2,21.48v.19c-1.64,9.07-7.65,15.58-12.4,19.45-9.08,7.38-20.17,10.52-30.9,13.56-6.45,1.83-13.12,3.72-19.2,6.51-7.76,3.55-9.59,8.93-12.12,16.38-.39,1.17-.8,2.38-1.25,3.61-2.32,6.44-5.87,14.58-12.8,20.48-5.22,4.44-11.56,6.89-17.83,6.89h-.01c-10.23,0-18.58-6.17-22.33-16.5l-.07-.16v-.19c-.28-9.02,2.47-14.52,9.78-19.62,4.19-2.93,8.86-5.09,13.38-7.18,1.29-.6,2.58-1.2,3.86-1.81l.76-.37c6.21-2.97,12.09-5.78,13.26-12.78-.34-4.78-1.6-9.51-2.82-14.08-.93-3.46-1.88-7.03-2.45-10.66-1.42-9.04,1.29-17.37,8.08-24.78.13-.14.26-.28.4-.42h3.14c-6.31,5.96-11.1,14.15-9.41,24.85.55,3.51,1.49,7.03,2.4,10.43,1.26,4.72,2.56,9.6,2.9,14.63v.13s-.01.13-.01.13c-1.31,8.25-8.03,11.47-14.52,14.58l-.76.36c-1.29.62-2.59,1.22-3.9,1.83-4.42,2.05-9,4.17-13.03,6.98-6.64,4.63-9.04,9.39-8.83,17.54,1.72,4.65,4.47,8.36,7.93,10.91,3.46,2.54,7.65,3.93,12.25,3.93,5.74,0,11.56-2.25,16.38-6.35,6.53-5.56,9.92-13.36,12.15-19.53.44-1.22.84-2.41,1.23-3.57,2.51-7.38,4.67-13.75,13.31-17.7,6.24-2.86,12.99-4.78,19.52-6.63,10.51-2.98,21.38-6.06,30.09-13.14,4.45-3.62,10.05-9.67,11.58-18.02.07-9.16-2.53-15.29-9.18-21.36h3.22Z"/>
        <path class="cls-13" d="m303.65,36.66c2.54,8.5,5.16,17.3,4.86,26.22-1.98,10.17-10.47,16.29-23.31,16.83-.86.03-1.76.05-2.66.05-19.92,0-43.03-8.13-46.67-25.99-1.68-9.15,4.48-19.13,10.73-27.69,6.14-8.42,12.33-16.45,20.34-22.08,4.45-3.13,11.47-6.47,17.81-6.47,3.94,0,7.17,1.28,9.57,3.8,3.64,5.86,4.66,12.6,5.64,19.11.48,3.15.97,6.41,1.75,9.52.61,2.22,1.29,4.5,1.94,6.7Zm4.42,26.17c.29-8.81-2.32-17.57-4.84-26.04-.66-2.21-1.34-4.49-1.95-6.72-.79-3.13-1.29-6.4-1.76-9.56-.98-6.47-1.99-13.16-5.55-18.9-2.29-2.4-5.4-3.63-9.22-3.63-6.23,0-13.16,3.3-17.55,6.39-7.96,5.59-14.12,13.58-20.24,21.97-6.2,8.49-12.3,18.37-10.64,27.34,3.58,17.61,26.47,25.63,46.22,25.63.89,0,1.79-.02,2.64-.05,12.62-.53,20.95-6.52,22.89-16.43Z"/>
        <path class="cls-13" d="m298.89,39.92c2.07,7.46,4.43,15.91,1.67,23.36-2.37,6.4-8.33,9.91-18.22,10.74-1.17.09-2.38.14-3.59.14-14.7,0-32.13-6.83-35.68-21.84v-.03s0-.03,0-.03c.53-16.05,11.24-33.01,26.06-41.22,2.5-1.4,6.34-3.06,10.39-3.06s7.14,1.59,9.44,4.71c4.39,5.94,6.47,14.01,8.31,21.13.33,1.28.66,2.54.99,3.77.21.77.42,1.55.64,2.33Zm1.25,23.21c2.7-7.32.38-15.7-1.68-23.09-.22-.78-.43-1.56-.64-2.33-.34-1.23-.66-2.5-1-3.78-1.91-7.43-3.89-15.11-8.22-20.97-2.22-3-5.28-4.52-9.09-4.52s-7.71,1.62-10.18,2.99c-14.68,8.14-25.29,24.92-25.81,40.82,3.5,14.75,20.71,21.46,35.23,21.46,1.2,0,2.4-.04,3.55-.14,9.7-.8,15.54-4.22,17.84-10.44Z"/>
        <path class="cls-13" d="m300.43,108.29c.89,3.11-.48,6.62-4.06,10.4-8.93,9.46-19.71,10.76-30.02,10.76-2.91,0-5.9-.12-8.8-.23s-5.91-.23-8.84-.23c-2.17,0-4.1.06-5.9.19-24.94,1.79-43.71,7.9-55.8,18.14-9.49,8.04-14.15,18.88-19.08,30.37-.2.46-.39.91-.59,1.37v-5.66c4.4-10.12,9.33-20.25,18.22-27.79,12.46-10.56,31.67-16.84,57.09-18.67,1.86-.13,3.84-.2,6.06-.2,2.98,0,6,.12,8.93.23,2.87.12,5.84.23,8.71.23,9.81,0,20.04-1.22,28.4-10.05,2.99-3.17,4.18-5.95,3.53-8.25-.74-2.58-3.83-4.65-8.94-5.99-4.56-1.2-9.25-2.23-13.79-3.22-5.05-1.11-10.29-2.26-15.39-3.65-17.13-4.66-30.41-13.38-44.42-29.15-.81-.9-1.62-1.84-2.45-2.8-5.04-5.85-10.74-12.47-18.18-14.35-10.36.25-19.26,1.05-27.77,2.51v-2.28c8.55-1.43,17.49-2.22,27.86-2.48h.15l.14.03c8.21,2.01,14.21,8.96,19.5,15.1.82.95,1.62,1.88,2.42,2.78,13.7,15.42,26.66,23.94,43.34,28.48,5.05,1.37,10.25,2.51,15.28,3.61,4.56,1,9.28,2.04,13.88,3.25,5.91,1.55,9.55,4.16,10.52,7.55Z"/>
        <path class="cls-13" d="m293.22,49.61c.4,4.88-.8,8.87-3.55,11.86-3.1,3.37-8.02,5.22-13.88,5.22-11.12,0-23.52-6.95-24.16-18.19.46-11.05,8.97-25.31,20.44-28.14,1.08-.26,2.15-.4,3.17-.4,12.33,0,17.16,19.4,17.98,29.65Zm-3.88,11.56c2.66-2.89,3.82-6.77,3.43-11.52-.81-10.11-5.52-29.24-17.53-29.24-.99,0-2.01.13-3.06.39-11.28,2.78-19.65,16.83-20.1,27.7.62,10.95,12.79,17.74,23.71,17.74,5.73,0,10.54-1.8,13.55-5.07Z"/>
        <path class="cls-13" d="m281.97,44.1c.58,3.06.01,5.75-1.65,7.77-1.64,2-4.31,3.19-7.15,3.19-3.66,0-8.36-2.09-9.55-7.98-.43-6.04,3.61-11.49,9.2-12.43h.03s.04,0,.04,0c4.49.74,8.14,4.54,9.08,9.45Zm-1.99,7.49c1.57-1.92,2.11-4.48,1.55-7.41-.9-4.71-4.39-8.35-8.68-9.09-5.34.93-9.2,6.16-8.79,11.93,1.14,5.59,5.62,7.59,9.11,7.59,1.35,0,2.66-.28,3.83-.8s2.2-1.27,2.98-2.22Z"/>
        <path class="cls-13" d="m274.26,148.15c.48,6.12-4.24,12.46-8.41,18.05-1.41,1.9-2.74,3.69-3.75,5.31-6.43,8.68-13.56,17.8-21.81,27.91-.75.91-1.5,1.84-2.24,2.77-5.14,6.39-10.46,13-17.67,17.24-6.26,3.67-14.89,4.37-22.5,5-2.49.21-4.84.4-7.04.68-8.23,1.05-17.7,2.54-26.09,6.93-7.04,4.12-11.73,10.65-16.26,16.96-5.97,8.33-12.16,16.95-23.81,19.78-5.61,1.37-12.18,2.12-18.48,2.12-9.06,0-25.61-1.58-34.6-12.08l-.13-.15v-.19c-.34-7.49,11.2-11.2,18.83-13.65,1.08-.34,2.1-.66,2.94-.96,2.88-1.01,5.75-1.99,8.63-2.98,6.72-2.3,13.67-4.69,20.41-7.28l1.64-.63c8.42-3.21,17.12-6.54,23.71-12.57,6.11-5.6,11.17-12.96,15.92-23.17,1.17-2.52,2.25-5.13,3.31-7.83h.48v-1.24c.6-1.56,1.2-3.14,1.81-4.76,5.2-13.81,10.59-28.09,22.75-36.36,11.89-8.09,27.6-12.54,44.23-12.54,3.84,0,7.7.24,11.48.71,10.25,1.29,22.55,3.91,26.6,12.74l.04.1v.09Zm-9.3,17.38c4.02-5.4,8.58-11.52,8.19-17.19-3.87-8.26-15.75-10.75-25.69-12-3.72-.47-7.53-.71-11.33-.71-16.41,0-31.89,4.38-43.6,12.35-11.87,8.07-17.19,22.18-22.34,35.82-1.84,4.91-3.59,9.54-5.63,13.92-4.81,10.34-9.95,17.82-16.18,23.52-6.74,6.17-15.55,9.54-24.07,12.79l-1.63.63c-6.76,2.59-13.72,4.98-20.45,7.29-2.87.99-5.75,1.97-8.62,2.98-.85.3-1.88.63-2.96.98-6.8,2.18-18.14,5.81-18.08,12.33,8.74,10.03,24.8,11.54,33.63,11.54,3.1,0,6.28-.19,9.36-.54,3.09-.36,6.09-.88,8.86-1.55,11.24-2.73,17.04-10.8,23.17-19.34,4.6-6.41,9.35-13.04,16.63-17.3,8.57-4.48,18.16-6,26.48-7.06,2.22-.28,4.59-.47,7.09-.68,7.49-.61,15.98-1.31,22.02-4.85,7.04-4.13,12.29-10.66,17.37-16.98.75-.93,1.49-1.86,2.24-2.78,8.25-10.09,15.36-19.19,21.76-27.82,1-1.62,2.35-3.43,3.78-5.35Z"/>
        <path class="cls-13" d="m256.48,146.88c10.52,8.85-.53,24.16-6.47,32.39l-.03.06c-6.5,8.99-14.17,19.14-23.09,25.74-8.97,6.64-18.68,10.37-30.56,11.73-6.61.77-13.12.88-18.63.9h-.04c-5.25-.98-7.43-1.82-9.59-6.85-.81-4.97,1.45-11.48,3.27-16.72.31-.91.61-1.77.87-2.58.63-1.89,1.24-3.84,1.83-5.71,1.14-3.63,2.32-7.37,3.66-11,3.94-10.54,9.56-18.5,17.69-25.05,9.97-6.39,24.38-10.51,36.72-10.51,10.04,0,18.47,2.63,24.37,7.6Zm-6.83,32.13c5.85-8.11,16.75-23.2,6.54-31.79-5.82-4.9-14.15-7.49-24.08-7.49-12.26,0-26.57,4.09-36.46,10.43-8.15,6.56-13.56,14.23-17.52,24.84-1.35,3.61-2.52,7.35-3.66,10.97-.59,1.88-1.2,3.82-1.83,5.73-.27.8-.56,1.67-.88,2.58-1.8,5.19-4.04,11.65-3.27,16.44,2.07,4.8,4.06,5.57,9.24,6.52,5.48-.01,11.97-.13,18.55-.88,11.8-1.36,21.45-5.05,30.34-11.65,8.87-6.56,16.52-16.68,22.99-25.64l.04-.06Z"/>
        <path class="cls-13" d="m249.14,154.95c5.15,11.51-3.21,26.18-24.87,43.59-5.68,4.23-18.54,10.18-29.35,10.18h-.01c-8.56,0-13.94-3.8-15.55-11-.05-16.71,6.11-37.69,23.48-46.62,7-3.6,15.05-5.58,22.67-5.58,6.87,0,16.53,1.63,23.6,9.37l.03.06Zm-25.14,43.23c21.45-17.24,29.78-31.72,24.75-43.02-6.95-7.59-16.47-9.19-23.24-9.19-7.55,0-15.53,1.97-22.47,5.53-17.19,8.84-23.28,29.64-23.24,46.17,1.97,8.75,9.3,10.6,15.11,10.6,10.72,0,23.46-5.9,29.09-10.09Z"/>
        <path class="cls-13" d="m240.64,158.33c7.22,12.32-9.32,28.69-18.45,34.7-5.25,3.44-14.1,7.47-21.77,7.47-6.69,0-11.13-2.98-13.18-8.86-1.99-15.06,5.35-30.05,17.84-36.49,5.2-2.69,12.59-4.42,18.84-4.42,5.59,0,13.04,1.32,16.72,7.6Zm-18.69,34.32c9.01-5.93,25.36-22.06,18.3-34.09-3.57-6.1-10.85-7.38-16.33-7.38-6.18,0-13.49,1.71-18.63,4.36-12.33,6.36-19.57,21.17-17.61,36,1.97,5.63,6.26,8.51,12.74,8.51,3.78,0,7.87-1,11.65-2.42,3.79-1.43,7.28-3.27,9.88-4.98Z"/>
        <path class="cls-13" d="m223.72,90.25c5.8,6.33,12.37,13.51,7.97,22.04l-.06.07c-7.37,6.03-15.4,9.84-23.67,13.53l-1.19.52c-14.93,6.66-30.31,13.5-39.43,27.1v-.8c9.23-13.34,24.46-20.12,39.25-26.71l1.19-.52c8.23-3.67,16.22-7.46,23.53-13.44,4.22-8.23-2.23-15.27-7.92-21.49-.58-.63-1.16-1.26-1.72-1.88-12.98-14.5-25.33-26.6-45.08-27.86-1.81-.12-3.68-.18-5.56-.18-.97,0-2.22.02-3.69.08v-.45c1.47-.06,2.72-.08,3.69-.08,1.89,0,3.77.06,5.59.18,19.92,1.27,32.34,13.44,45.39,28.01.55.62,1.13,1.24,1.71,1.88Z"/>
        <path class="cls-13" d="m231.79,166.76v.05c-.2,9.91-8.54,17.36-15.64,20.72-3.17,1.51-6.97,2.4-10.17,2.4-5.89,0-9.39-2.92-9.84-8.23-.39-5.2,1.77-10.63,6.08-15.29,4.73-5.12,11.22-8.29,16.95-8.29,3.98,0,9.4,1.49,12.6,8.6l.02.04Zm-15.83,20.36c6.97-3.3,15.16-10.59,15.38-20.26-3.11-6.85-8.33-8.29-12.17-8.29-5.61,0-11.98,3.12-16.62,8.14-4.23,4.57-6.34,9.88-5.96,14.95.55,6.47,5.41,7.82,9.39,7.82,3.13,0,6.87-.88,9.98-2.36Z"/>
        <path class="cls-13" d="m221.74-4.74c1.39,1.6,1.91,3.75,1.56,6.4-1.08,7.98-9.63,13.54-16.63,13.54h-.01c-5.22,0-9.06-3-10.51-8.24-.27-2.93.77-5.75,2.99-8.18,3.46-3.79,9.47-6.33,14.96-6.33,3.34,0,6.06,1,7.64,2.81Zm1.11,6.34c.34-2.52-.15-4.55-1.45-6.04-1.49-1.72-4.09-2.66-7.3-2.66-5.37,0-11.25,2.48-14.63,6.18-2.13,2.34-3.13,5.04-2.88,7.8,1.9,6.84,7.13,7.88,10.07,7.88h.01c6.81,0,15.14-5.41,16.18-13.16Z"/>
        <path class="cls-13" d="m211.05,96.66c1.43,4.67,1.04,8.94-1.17,12.7-3.62,6.17-10.57,9.95-16.72,13.28-.57.31-1.13.62-1.68.92-4.76,2.61-9.69,5.11-14.46,7.52-2.64,1.34-5.37,2.73-8.05,4.12-.55.28-1.09.56-1.63.82v-.5c.47-.23.94-.47,1.42-.72,2.68-1.39,5.41-2.78,8.06-4.12,4.76-2.41,9.69-4.9,14.44-7.52.56-.3,1.12-.61,1.69-.91,6.09-3.31,12.99-7.06,16.55-13.12,2.14-3.64,2.52-7.8,1.12-12.34-2.85-9.28-13.08-18.87-21.32-22.77-6.18-2.92-13.28-4.47-20.54-4.47-.47,0-.94.01-1.42.02v-.45c.47-.01.95-.02,1.42-.02,7.32,0,14.5,1.56,20.74,4.52,8.33,3.94,18.66,13.63,21.55,23.04Z"/>
        <path class="cls-13" d="m188.2-63.04c7.41,2.31,12.17,9.41,12.17,18.09,0,10.77-8.87,16.57-16.69,21.68-7.78,5.07-13.61,9.86-18.69,18.03-3.28,7.97-1.3,16.33.62,24.42.5,2.11,1.02,4.29,1.43,6.41.05.28.1.55.14.81h-.46c-.03-.24-.07-.48-.12-.73-.41-2.11-.92-4.28-1.42-6.39-1.94-8.15-3.94-16.59-.58-24.72,5.13-8.28,11.01-13.1,18.83-18.21,8.1-5.29,16.49-10.77,16.49-21.3,0-8.48-4.63-15.41-11.8-17.66-.28,0-.61,0-.95,0-8.58,0-18.6,6.46-25.92,11.18-.64.42-1.26.82-1.87,1.21-6.61,3.89-13.96,6.8-21.07,9.61-10.29,4.07-20.94,8.28-29.47,15.54-5.05,4.3-9.55,9.18-13.9,13.91C84.89-.27,75.4,10.03,59.71,13.62c-4.03.93-8.15,1.37-12.58,1.37-4.92,0-10.15-.55-16.47-1.73-4.1-.76-8.48-1.47-12.74-1.47-5.5,0-10.33,1.18-15.22,3.73-3.72,1.93-7.25,4.32-10.66,6.63-3.18,2.16-6.47,4.38-9.91,6.24-2.96,1.6-5.82,2.38-8.75,2.38-6.21,0-11.99-3.62-17.59-7.12-.72-.45-1.71-1.21-2.85-2.08-3.16-2.41-7.49-5.71-10.19-5.71-.27,0-.52.04-.75.11-2.44,2.81-2.64,6.57-2.84,10.2-.04.85-.09,1.72-.16,2.56.82,6.34,3.76,13.95,13.08,13.95,1.14,0,2.37-.12,3.64-.35,3.1-.57,6.13-1.62,9.06-2.63,1.14-.4,2.31-.81,3.48-1.18,1.44-.46,2.83-.69,4.25-.69,3.62,0,6.83,1.47,10.55,3.67,14.76,8.74,29,25.7,24.7,47.07-1.17,5.83-3.53,11.64-5.81,17.26-5.1,12.56-9.92,24.43-3.07,37.12.7,1.3,1.43,2.6,2.16,3.91,3.61,6.47,7.35,13.16,8.47,20.63,1.49,9.93.72,20.52-.12,29.66-.91,9.92-1.38,19.51,2.82,27.89,3.15,3.57,6.58,5.38,10.18,5.38,4.72,0,9.36-3.16,13.07-8.89,5.2-8.05,10.25-17.22,15.01-27.28.75-1.59,1.46-3.21,2.14-4.84h.49c-.71,1.7-1.45,3.38-2.23,5.04-4.77,10.07-9.83,19.26-15.03,27.32-3.8,5.87-8.57,9.1-13.45,9.1-3.69,0-7.33-1.92-10.53-5.56l-.03-.05c-4.27-8.48-3.8-18.16-2.88-28.15.83-9.12,1.6-19.68.12-29.55-1.12-7.4-4.83-14.05-8.43-20.48-.72-1.31-1.45-2.61-2.15-3.91-6.95-12.88-1.87-25.4,3.05-37.51,2.27-5.6,4.62-11.39,5.79-17.18,4.24-21.14-9.87-37.93-24.49-46.59-3.66-2.17-6.81-3.61-10.33-3.61-1.37,0-2.72.22-4.12.67-1.15.37-2.33.78-3.47,1.17-2.94,1.02-5.98,2.08-9.12,2.65-1.3.24-2.55.36-3.72.36-3.82,0-6.9-1.25-9.18-3.67-2.27-2.42-3.74-6.02-4.35-10.72.07-.88.12-1.75.17-2.59.2-3.73.41-7.59,2.99-10.52l.04-.05.06-.02c.28-.1.6-.14.94-.14,2.85,0,7.25,3.35,10.46,5.79,1.13.87,2.12,1.62,2.82,2.06,5.54,3.46,11.27,7.05,17.35,7.05,2.86,0,5.65-.76,8.53-2.32,3.43-1.85,6.71-4.07,9.88-6.22,3.42-2.32,6.96-4.71,10.71-6.66,4.95-2.58,9.85-3.78,15.42-3.78,4.29,0,8.7.71,12.82,1.48,6.29,1.18,11.5,1.73,16.39,1.73,4.4,0,8.48-.45,12.48-1.36,15.55-3.56,25-13.81,35-24.67,4.36-4.73,8.87-9.63,13.94-13.95,8.59-7.3,19.27-11.52,29.59-15.61,7.1-2.8,14.43-5.7,21.01-9.58.59-.38,1.22-.78,1.86-1.2,7.65-4.93,18.23-11.77,27.19-11.22Z"/>
        <path class="cls-13" d="m193.61,93.33c1.85,3.73,2.01,7.46.47,11.11-2.87,6.82-11.42,12.2-18.62,14.51-3.14,1.01-5.76,1.58-8.12,1.74v-.45c2.31-.16,4.89-.73,7.99-1.72,7.1-2.28,15.52-7.57,18.34-14.26,1.48-3.52,1.32-7.12-.47-10.73-4.63-9.32-15.43-13.49-24.08-13.49-.6,0-1.2.02-1.78.06v-.45c.59-.04,1.18-.06,1.78-.06,8.79,0,19.77,4.25,24.49,13.74Z"/>
        <path class="cls-13" d="m181.85-82.15h2.24c-.35,15.52-21.11,25.63-33.77,31.8-.73.36-1.43.7-2.1,1.03-4.68,2.3-9.46,4.29-14.08,6.21-11.89,4.96-23.12,9.65-32.53,19.1-2.94,2.96-5.59,6.3-8.15,9.52-2.59,3.26-5.26,6.62-8.26,9.66-6.78,6.83-14.19,11.21-25.56,15.08-6.14,2.6-16.11.99-23.41-1.39-6.01-1.97-11.64-5.15-17.09-8.22-2.69-1.52-5.47-3.09-8.21-4.46-2.41-.41-4.26,1.41-6.22,3.33-.79.78-1.61,1.58-2.47,2.22-3.3,3.43-6.93,6.37-10.79,8.73-5.45,3.35-10.66,5.03-15.43,5.03-3.65,0-7.05-.98-10.12-2.95-3.14-2.01-5.2-4.91-5.96-8.37-.85-3.93.08-8.38,2.55-12.24,5.11-7.94,14.5-12.51,23.92-11.63,2.17.2,5.14,1.37,8.28,2.62C-.04-15,6.52-12.41,9.05-14.81c3.66-3.47,5.33-11.18,4.83-16.63-1.62-17.48-17.02-18.36-31.9-19.22-1.43-.08-2.84-.16-4.22-.26-19.52-1.36-36.24-9.8-45.87-23.15-.15-.21-.31-.43-.49-.67-1.4-1.9-3.47-4.72-3.94-7.41h2.27c.53,2.07,2.35,4.55,3.47,6.08.18.24.35.47.5.68,9.24,12.81,25.36,20.91,44.22,22.23,1.36.1,2.77.18,4.19.26,14.34.82,32.2,1.85,33.99,21.25.55,5.91-1.2,14.39-5.51,18.48C7.02-9.79.03-12.56-6.13-14.99c-2.99-1.19-5.82-2.3-7.66-2.47-8.61-.81-17.18,3.36-21.84,10.61-2.15,3.35-2.97,7.2-2.24,10.54.62,2.87,2.35,5.28,4.98,6.96,6.41,4.11,14.2,3.4,23.17-2.1C-6,6.27-2.49,3.43.69.11L.84-.02c.76-.55,1.51-1.29,2.3-2.07,2.22-2.17,4.73-4.64,8.37-3.91l.14.03.13.07c2.84,1.41,5.7,3.02,8.45,4.58,5.36,3.02,10.89,6.15,16.7,8.04,6.92,2.26,16.3,3.83,21.87,1.45l.08-.03c11.04-3.76,18.21-7.98,24.73-14.56,2.92-2.94,5.55-6.26,8.09-9.46,2.6-3.28,5.29-6.67,8.32-9.71,9.72-9.78,21.16-14.54,33.26-19.59,4.59-1.91,9.34-3.89,13.95-6.16.68-.33,1.38-.67,2.11-1.03,12.16-5.93,32.11-15.64,32.51-29.78Z"/>
        <path class="cls-13" d="m172.24-82.15h.46c-.52,5.3-3.66,10.46-9.47,15.62-9.61,8.51-21.2,13.14-32.4,17.62-4.97,1.99-10.11,4.04-15.07,6.42-8.84,4.24-15.92,9.9-22.3,17.8-1.29,1.59-2.57,3.24-3.81,4.85-4.56,5.89-9.28,11.98-15.42,16.51-6.07,4.49-13.83,7.06-21.29,7.06-11.78,0-20.27-6.1-23.3-16.73-1.45-5.07-1.94-10.42-2.43-15.58-.42-4.54-.85-9.23-1.93-13.72-1.87-7.81-5.25-18.6-12.94-22.09-4.1-1.86-8.78-2.69-15.18-2.69-2.54,0-5.12.12-7.62.24-1.78.09-3.62.18-5.39.22h-.07c-1.39,0-18.38-1.39-19.78-5.19-.28-.75.03-1.53.93-2.3,3.74-4.1,12.73-5.41,19.3-6.36,1.44-.21,2.79-.4,3.93-.61,1.1-.19,2.23-.42,3.37-.64.72-.15,1.46-.29,2.19-.43h2.55c-1.56.25-3.12.56-4.65.87-1.15.22-2.28.45-3.39.65-1.14.2-2.5.4-3.93.6-6.51.95-15.41,2.24-19.06,6.24-.77.67-1.03,1.26-.82,1.82,1.23,3.33,17.32,4.9,19.36,4.9h.06c1.77-.04,3.6-.13,5.38-.22,2.5-.12,5.09-.24,7.64-.24,6.46,0,11.2.84,15.37,2.73,7.86,3.57,11.29,14.49,13.19,22.4,1.08,4.51,1.52,9.22,1.94,13.77.48,5.15.98,10.48,2.41,15.5C33.04-2.7,41.38,3.28,52.94,3.28c7.37,0,15.03-2.54,21.03-6.97,6.08-4.49,10.78-10.56,15.33-16.43,1.24-1.6,2.52-3.26,3.81-4.86,6.42-7.95,13.56-13.64,22.46-17.92,4.97-2.38,10.11-4.44,15.09-6.43,11.69-4.67,22.72-9.08,32.27-17.54,5.7-5.05,8.79-10.11,9.31-15.28Z"/>
        <path class="cls-13" d="m167.34,27.97c.04.65.04,1.27,0,1.86v-1.86Z"/>
        <path class="cls-13" d="m167.34,188.17v1.24h-.48c.16-.41.32-.82.48-1.24Z"/>
        <path class="cls-13" d="m167.34,173.4v5.66c-1.48,3.44-3.01,6.94-4.71,10.35h-2.51c2.11-4.12,3.95-8.42,5.76-12.62.48-1.13.97-2.26,1.46-3.39Z"/>
        <path class="cls-13" d="m167.34,152.71v.8c-1.21,1.78-2.29,3.67-3.26,5.7l-.39.95c-4.34,10.48-8.53,20.59-14.85,29.25h-.55c6.4-8.68,10.62-18.87,14.99-29.42l.39-.96c1.08-2.26,2.31-4.36,3.67-6.32Z"/>
        <path class="cls-13" d="m167.34,135.52v.5c-.99.5-1.96.97-2.91,1.43-5.73,2.78-10.67,5.17-16.49,11.06-3.73,4.22-3.42,8.53-3.11,12.7.2,2.7.4,5.49-.51,8.2-2.41,7.09-6.53,12.81-11.92,16.53-1.93,1.33-4.65,2.73-7.5,3.47h-2.57c1.6-.16,3.22-.59,4.74-1.18,1.93-.74,3.71-1.71,5.08-2.66,5.3-3.66,9.37-9.3,11.74-16.3.89-2.63.7-5.25.49-8.03-.31-4.26-.63-8.67,3.23-13.04,5.88-5.95,11.1-8.48,16.62-11.15,1.02-.49,2.05-.99,3.11-1.53Z"/>
        <path class="cls-13" d="m167.34,120.24v.45c-.53.05-1.04.07-1.54.07-3.65,0-6.7-1.08-9.05-3.2-5.1-4.58-7.08-11.16-8.22-16.39-.74-6.04.64-11.22,3.99-15,3.37-3.81,8.7-6.15,14.82-6.52v.45c-5.99.37-11.2,2.64-14.49,6.36-3.25,3.69-4.6,8.75-3.88,14.64,1.13,5.13,3.07,11.63,8.07,16.13,2.31,2.07,5.18,3.08,8.76,3.08.5,0,1.01-.02,1.54-.07Z"/>
        <path class="cls-13" d="m167.34,69.12v.45c-6.06.17-12.03,1.42-17.36,3.66-16.33,6.83-14.07,23.08-10.67,37.77,1.71,7.36,3.2,14.01,4.19,20.8l.07.48c1.34,9.15,2.07,14.19-5.93,20.21-.92.68-1.85,1.37-2.79,2.07-10.3,7.6-21.96,16.22-21.16,29.98,1.08,2.91,3.15,4.54,6.14,4.87h-2.04c-2.11-.78-3.66-2.37-4.53-4.74l-.02-.07c-.83-14.02,10.95-22.72,21.34-30.4.95-.7,1.88-1.39,2.79-2.07,7.8-5.86,7.12-10.51,5.76-19.78l-.07-.48c-.99-6.78-2.48-13.42-4.18-20.77-3.45-14.87-5.73-31.32,10.92-38.29,5.39-2.26,11.43-3.52,17.54-3.69Z"/>
        <path class="cls-13" d="m167.34,60.26v.45c-10.13.45-30.6,3.08-38.57,16.58-4.42,7.48-2.46,16.74-.73,24.91.22,1,.42,1.99.62,2.96,1.69,8.39,3.08,19.28-1.14,29.07-3.72,8.61-10.52,14.93-17.1,21.04-5.77,5.37-11.75,10.91-15.66,18.02-2.79,5.06-4.71,10.52-5.68,16.12h-.44c.97-5.68,2.9-11.21,5.73-16.34,3.95-7.17,9.95-12.74,15.75-18.13,6.54-6.08,13.31-12.36,16.99-20.89,4.17-9.67,2.78-20.47,1.11-28.8-.2-.97-.4-1.96-.62-2.96-1.75-8.25-3.73-17.6.78-25.23,8.09-13.69,28.76-16.34,38.96-16.8Z"/>
        <path class="cls-13" d="m167.34,49.97v2.28c-.96.16-1.91.33-2.86.51l-.83.15c-15.74,2.98-39.54,7.47-45.66,24.37-2.45,6.78-.62,14.25,1.15,21.48.49,2,.99,4.06,1.38,6.04,2.14,10.81,1.15,19.44-3.12,27.14-4.44,8.03-11.62,13.53-18.55,18.84-6.55,5.02-13.33,10.2-17.54,17.45-3.53,6.09-6.58,13.06-9.24,21.18h-2.36c2.77-8.57,5.95-15.9,9.67-22.3,4.43-7.64,11.38-12.97,18.11-18.12,6.76-5.17,13.74-10.51,17.95-18.14,4-7.21,4.92-15.35,2.89-25.61-.38-1.93-.86-3.88-1.37-5.95-1.84-7.55-3.76-15.36-1.07-22.78,6.55-18.09,31.1-22.73,47.35-25.8l.82-.16c1.09-.21,2.18-.4,3.28-.58Z"/>
        <path class="cls-8" d="m167.34,29.83v20.14c-1.1.18-2.19.37-3.28.58l-.82.16c-16.25,3.07-40.8,7.71-47.35,25.8-2.69,7.42-.77,15.23,1.07,22.78.51,2.07.99,4.02,1.37,5.95,2.03,10.26,1.11,18.4-2.89,25.61-4.21,7.63-11.19,12.97-17.95,18.14-6.73,5.15-13.68,10.48-18.11,18.12-3.72,6.4-6.9,13.73-9.67,22.3h-16.61c1-2.41,1.95-4.83,2.88-7.21,2.12-5.46,4.32-11.1,7.17-16.32,5.12-9.37,13.9-14.82,22.38-20.1,7.54-4.68,15.33-9.53,20.59-17.1,4.88-7,6.2-15.16,4.04-24.94-.49-2.18-1.11-4.42-1.72-6.59-2.01-7.26-4.1-14.77-1.63-22.13,5.13-15.3,21.25-21.36,35.48-26.7,3.31-1.25,6.44-2.42,9.4-3.69,7.14-3.05,15.09-6.44,15.65-14.8Z"/>
        <path class="cls-13" d="m167.34,27.97v1.86c-.56,8.36-8.51,11.75-15.65,14.8-2.96,1.27-6.09,2.44-9.4,3.69-14.23,5.34-30.35,11.4-35.48,26.7-2.47,7.36-.38,14.87,1.63,22.13.61,2.17,1.23,4.41,1.72,6.59,2.16,9.78.84,17.94-4.04,24.94-5.26,7.57-13.05,12.42-20.59,17.1-8.48,5.28-17.26,10.73-22.38,20.1-2.85,5.22-5.05,10.86-7.17,16.32-.93,2.38-1.88,4.8-2.88,7.21h-.49c1.04-2.46,2.01-4.94,2.95-7.37,2.13-5.47,4.33-11.12,7.2-16.37,5.18-9.48,14-14.97,22.54-20.27,7.49-4.66,15.24-9.48,20.46-16.97,4.79-6.9,6.09-14.94,3.96-24.59-.48-2.17-1.1-4.41-1.71-6.57-2.03-7.33-4.14-14.9-1.63-22.39,5.2-15.51,21.43-21.61,35.76-26.99,3.3-1.24,6.42-2.41,9.38-3.67,7.89-3.37,16.83-7.2,15.2-17.82h.46c.08.54.13,1.06.16,1.57Z"/>
        <path class="cls-8" d="m166.72,26.4c1.63,10.62-7.31,14.45-15.2,17.82-2.96,1.26-6.08,2.43-9.38,3.67-14.33,5.38-30.56,11.48-35.76,26.99-2.51,7.49-.4,15.06,1.63,22.39.61,2.16,1.23,4.4,1.71,6.57,2.13,9.65.83,17.69-3.96,24.59-5.22,7.49-12.97,12.31-20.46,16.97-8.54,5.3-17.36,10.79-22.54,20.27-2.87,5.25-5.07,10.9-7.2,16.37-.94,2.43-1.91,4.91-2.95,7.37h-14.61v-37.1h.16c6.26,0,12.54-3.34,18.61-6.57,2.49-1.32,4.85-2.57,7.08-3.52,2.02-.86,4.31-1.69,6.73-2.57,7.37-2.68,15.72-5.72,20.59-11.01,5-4.79,9.86-10.16,9.66-18.31-.12-4.98-1.44-9.77-2.7-14.4-1.19-4.35-2.43-8.86-2.6-13.41-.79-19.65,18.58-29.84,34.14-38.03l2.32-1.23c7.3-3.85,15.55-8.19,18.16-16.86h16.57Z"/>
        <path class="cls-13" d="m160.12,189.41h2.51c-.79,1.6-1.61,3.17-2.49,4.72-8.5,14.96-22.75,26.28-42.34,33.65-5.21,1.96-18.63,6.52-30.84,6.52h-.01c-12.77,0-20.56-5.14-22.54-14.88l-.03-.15v-.14c.12-1.81.06-3.7.02-5.52-.04-1.35-.08-2.74-.06-4.11l.03-.24c.93-3.95,2.19-9.16,3.67-14.35.54-1.89,1.1-3.72,1.67-5.5h2.36c-.65,1.97-1.27,4.01-1.88,6.12-1.45,5.09-2.69,10.21-3.61,14.13-.02,1.28.02,2.61.05,3.89.05,1.82.1,3.7.01,5.56,1.8,8.59,8.63,12.94,20.31,12.95,11.85,0,24.97-4.46,30.06-6.37,19.09-7.19,32.95-18.19,41.18-32.68.67-1.18,1.31-2.38,1.93-3.6Z"/>
        <path class="cls-13" d="m149.73,7.34c1.04,5.84,2.11,11.89.73,17.88-.09.4-.2.8-.31,1.18h-2.36c.19-.54.36-1.1.49-1.68,1.27-5.55.25-11.37-.75-16.99-.54-3.06-1.1-6.23-1.3-9.35-.09-1.48-.08-3.06-.07-4.73.02-4.77.04-10.18-2.55-12.79-1.38-1.38-3.44-1.95-6.28-1.74-8.81.65-17.99,4.46-25.18,10.45-4.38,3.32-8.5,6.91-12.5,10.38-9.54,8.3-19.41,16.89-32.45,21.43-8.12,2.84-16.47,3.94-24.55,5-.05,0-.1,0-.15.02h-4.5v.6c-1.74.25-3.49.51-5.24.79-13.77,2.28-19.95,7.85-18.89,17.02.86,3.86,1.98,7.74,3.07,11.5,1.52,5.24,3.08,10.66,4,16.18,1.85,11.11-.47,21.6-2.72,31.74-2.04,9.18-3.4,17.51.61,26.47,3.88,8.68,10.94,18.32,19.15,19.36h.02v2.25h-.23c-11.53-1.42-18.97-16.19-20.98-20.69-4.29-9.58-2.8-18.65-.76-27.87,2.2-9.94,4.48-20.21,2.7-30.9-.89-5.38-2.44-10.74-3.94-15.92-1.1-3.8-2.24-7.74-3.12-11.69l-.02-.11c-1.24-10.49,5.74-17.07,20.74-19.55,3.35-.55,6.71-1,9.97-1.42,8.33-1.1,16.2-2.13,24.11-4.89,12.62-4.41,21.9-12.48,31.72-21.02,4.02-3.49,8.17-7.1,12.58-10.44,7.49-6.25,17.13-10.24,26.4-10.93,3.5-.26,6.19.55,8.03,2.4,3.24,3.27,3.22,9.17,3.2,14.38-.01,1.63-.02,3.18.07,4.58.18,2.99.73,6.1,1.26,9.1Z"/>
        <path class="cls-13" d="m147.79,26.4h2.36c-2.61,8.67-10.86,13.01-18.16,16.86l-2.32,1.23c-15.56,8.19-34.93,18.38-34.14,38.03.17,4.55,1.41,9.06,2.6,13.41,1.26,4.63,2.58,9.42,2.7,14.4.2,8.15-4.66,13.52-9.66,18.31-4.87,5.29-13.22,8.33-20.59,11.01-2.42.88-4.71,1.71-6.73,2.57-2.23.95-4.59,2.2-7.08,3.52-6.07,3.23-12.35,6.57-18.61,6.57h-.16v-2.25h.16c5.7.01,11.73-3.2,17.57-6.3,2.53-1.35,4.92-2.62,7.24-3.61,2.09-.88,4.4-1.72,6.84-2.61,7.15-2.6,15.24-5.55,19.74-10.44l.05-.06c4.84-4.63,9.16-9.4,8.99-16.65-.12-4.71-1.39-9.36-2.62-13.86-1.23-4.48-2.49-9.11-2.68-13.92-.84-21.06,20.07-32.07,35.34-40.11l2.31-1.22c7.05-3.72,14.31-7.54,16.85-14.88Z"/>
        <path class="cls-13" d="m148.29,189.41h.55c-3.95,5.42-8.73,10.27-14.91,14.28-5.84,3.78-19.18,9.8-30.11,9.8h0c-10.03-.01-15.53-5.07-15.92-14.64-.05-3.16.2-6.32.75-9.44h.44c-.54,3.11-.79,6.27-.74,9.43.38,9.42,5.58,14.2,15.47,14.2h0c10.84,0,24.07-5.97,29.86-9.73,6.02-3.91,10.72-8.62,14.61-13.9Z"/>
        <path class="cls-13" d="m129.03,13.6c1.81,4.86.95,9.09-1.33,12.8h-.55c2.34-3.67,3.25-7.84,1.47-12.64-1.77-4.75-4.92-7.16-9.36-7.16-7.37,0-16.89,6.53-22.58,10.43-.66.46-1.28.89-1.85,1.27-4.83,3.25-9.81,5.85-15.07,8.1h-1.14c5.6-2.35,10.87-5.05,15.96-8.48.57-.38,1.19-.8,1.85-1.26,5.73-3.93,15.32-10.51,22.83-10.51,4.65,0,7.94,2.51,9.77,7.45Z"/>
        <path class="cls-13" d="m127.15,26.4h.55c-3.68,5.95-11.06,10.57-17.08,14.33-1.84,1.16-3.58,2.25-5.07,3.28-8.48,5.88-23.16,18.37-26.14,35.94-.68,4.01-.06,8.66.54,13.16,1.27,9.49,2.59,19.3-8.17,23.76-3.63,1.51-7.64,2.3-11.6,2.3h-.01c-9.84,0-17.26-4.79-19.84-12.82-1.5-4.71-1.91-9.7-2.31-14.53-.01-.08-.01-.16-.02-.24v-4.94c.19,1.72.33,3.45.47,5.14.39,4.81.8,9.78,2.29,14.43,2.51,7.84,9.77,12.52,19.41,12.52h.01c3.9,0,7.85-.79,11.43-2.27,10.44-4.33,9.21-13.54,7.9-23.29-.61-4.53-1.24-9.22-.54-13.3,3-17.73,17.78-30.31,26.33-36.23,1.49-1.04,3.24-2.13,5.09-3.29,5.88-3.68,13.08-8.19,16.76-13.95Z"/>
        <path class="cls-13" d="m122.33,189.41h2.57c-1.28.32-2.59.52-3.87.52-1.19,0-2.27-.18-3.24-.52h2.04c.38.05.78.07,1.2.07s.86-.02,1.3-.07Z"/>
        <path class="cls-13" d="m111.6,24.05c.14.65-.07,1.45-.54,2.35h-.47c.48-.88.7-1.65.57-2.25-.13-.58-.61-.97-1.46-1.19-.67-.18-1.41-.26-2.19-.26-3.46,0-7.52,1.7-11.46,3.7h-.98c4.22-2.19,8.65-4.15,12.44-4.15.81,0,1.59.09,2.3.27,1.02.27,1.62.78,1.79,1.53Z"/>
        <path class="cls-13" d="m110.59,26.4h.47c-2.03,3.96-9.02,9.74-11.99,12.19-.57.47-.97.81-1.15.98-12.35,11.34-22.73,25.72-31.73,43.96-2.09,4.24-4.47,6.39-7.06,6.39-8.64,0-16.84-23.93-18.16-30.04-.06-.61-.08-1.21-.08-1.79,0-14.98,18.07-19.56,32.7-23.28,4.2-1.06,8.16-2.07,11.2-3.22,2-.75,4.41-2.05,6.96-3.43,1.08-.58,2.19-1.18,3.32-1.76h.98c-1.38.7-2.75,1.44-4.08,2.16-2.57,1.38-4.99,2.69-7.02,3.45-3.06,1.16-7.04,2.17-11.25,3.24-15.03,3.82-33.74,8.56-32.29,24.56,1.76,8.15,9.87,29.66,17.72,29.66,1.21,0,2.37-.51,3.48-1.54s2.17-2.56,3.18-4.6c9.02-18.29,19.43-32.71,31.82-44.1.19-.17.6-.51,1.18-.98,2.65-2.18,9.68-8.01,11.8-11.85Z"/>
        <path class="cls-13" d="m78.62,26.4h1.14c-6.95,2.99-14.4,5.39-22.67,7.93-6.86,2.11-14.23,4.38-19.09,8.85v-.62c4.92-4.34,12.18-6.57,18.96-8.66,7.87-2.42,15-4.71,21.66-7.5Z"/>
        <path class="cls-13" d="m41.75,284.88c3.96,3.7,13.21,12.33,8.53,20.59-2.37,6.07-4.56,12.52-7.11,20.92-2.63,8.69-7.12,11.36-15,13.5-8.11,2.2-15.39,4.44-22.25,9.64-8.73,6.6-13.56,15.56-18.67,25.04-2.63,4.87-5.35,9.93-8.66,14.61-.48.68-.99,1.36-1.51,2.04h-2.87c.9-1.1,1.76-2.21,2.56-3.34,3.22-4.57,5.91-9.56,8.51-14.39,5-9.26,10.17-18.85,19.29-25.75,7.17-5.44,14.98-7.84,23.01-10.02,7.4-2.01,11.09-4.21,13.45-11.99,2.58-8.48,4.79-15.01,7.19-21.15l.08-.15c3.44-5.98-2.51-12.7-8.08-17.9-7.09-6.61-15.44-11.94-23.51-17.1-8.69-5.54-17.67-11.28-25.19-18.66-7.47-7.33-10.11-14.77-8.29-23.4,1-4.79,2.7-9.41,4.33-13.88,1.78-4.83,3.61-9.84,4.54-15,4.06-22.52-1.71-36.98-17.63-44.21-2.93-1.33-6.26-2-9.78-2.7-4.99-1.01-10.16-2.04-14.13-5.14-2.02-1.57-2.97-3.37-2.82-5.34.38-5.28,8.64-9.97,14.1-13.07,1.17-.66,2.18-1.24,2.79-1.65,12.73-8.48,27.17-23.5,29.51-40.23.97-6.95-.8-12.94-5.11-17.33-5.2-5.29-13.67-7.76-22.66-6.63-2.9.37-5.94.97-8.88,1.54-13.33,2.62-27.11,5.32-34.17-11.29-2.53-5.95-3.3-12.45-4.05-18.73-.32-2.7-.65-5.49-1.12-8.16-1.45-8.29-4.38-16.01-9.22-24.29-6.78-11.58-17.76-27.94-34.86-36.22-8.21-3.99-18.78-5.15-29.76-3.3h-.08c-9.48.88-21.05,4.08-25.28,10.49-.6,3.24-.62,6.59-.62,9.83-.03,6.37-.04,12.96-4.49,18.92-3.33,4.47-8.46,6.65-13.42,8.77-2.04.87-3.96,1.68-5.76,2.65-6.41,3.46-8.23,8.57-10.53,15.03-.36,1.02-.73,2.07-1.13,3.13-2.01,10.52-4.97,20.9-7.83,30.95-2.94,10.31-4.77,20.46-6.72,31.21-.28,1.54-.56,3.08-.84,4.63-1.01,7.09-3.27,12.7-6.73,16.79v-3.79c2.24-3.51,3.75-7.97,4.52-13.36.29-1.59.57-3.13.85-4.67,1.87-10.33,3.8-21.01,6.77-31.43,2.86-10.03,5.81-20.39,7.8-30.84l.05-.19c.41-1.08.79-2.14,1.15-3.18,2.37-6.65,4.41-12.39,11.59-16.26,1.87-1.01,3.94-1.89,5.93-2.74,4.69-2,9.54-4.06,12.5-8.04,4.01-5.37,4.03-11.3,4.05-17.58.01-3.42.02-6.96.7-10.47l.04-.21.11-.18c5.74-9.05,22.09-11.22,27.04-11.68,11.42-1.92,22.45-.68,31.07,3.5C-107.31-28.43-96.07-11.71-89.14.12c4.98,8.52,8,16.48,9.5,25.04.47,2.73.81,5.55,1.13,8.28.73,6.13,1.48,12.47,3.89,18.11,6.35,14.95,18.65,12.54,31.68,9.98,2.98-.59,6.06-1.19,9.03-1.56,9.68-1.23,18.85,1.49,24.53,7.28,4.83,4.9,6.81,11.54,5.73,19.21-2.44,17.47-17.34,33.04-30.48,41.79-.68.46-1.72,1.05-2.93,1.73-4.42,2.52-12.67,7.2-12.97,11.29-.09,1.19.55,2.3,1.96,3.39,3.56,2.78,8.24,3.72,13.2,4.71,3.49.7,7.1,1.43,10.26,2.86,17,7.72,23.18,22.98,18.91,46.66-.96,5.35-2.83,10.45-4.63,15.38-1.61,4.39-3.28,8.94-4.25,13.56-1.67,7.92.7,14.5,7.67,21.34,7.35,7.21,16.23,12.88,24.82,18.37,8.16,5.21,16.6,10.59,23.84,17.34Z"/>
        <path class="cls-13" d="m38,26.4h4.5c-1.48.2-2.99.4-4.5.6v-.6Z"/>
        <path class="cls-13" d="m38,86.64v4.94c-.21-2.65-.44-5.39-.85-8.03-.73-4.65-1.77-9.33-2.78-13.84-.67-3.03-1.37-6.16-1.96-9.26-1.31-8.54,1.22-14.05,5.59-17.89v.62c-4.08,3.76-6.39,9.09-5.15,17.2.59,3.08,1.29,6.2,1.96,9.23,1.01,4.52,2.05,9.2,2.78,13.87.16,1.04.3,2.1.41,3.16Z"/>
      </g>
      <polygon class="cls-3" points="167.34 27.97 167.34 26.4 167.18 26.4 166.72 26.4 150.15 26.4 147.79 26.4 127.7 26.4 127.15 26.4 111.06 26.4 110.59 26.4 96.05 26.4 95.07 26.4 79.76 26.4 78.62 26.4 42.5 26.4 38 26.4 38 27 38 42.56 38 43.18 38 58.09 38 86.64 38 91.58 38 150.06 38 152.31 38 189.41 52.61 189.41 53.1 189.41 69.71 189.41 72.07 189.41 88.64 189.41 89.08 189.41 117.79 189.41 119.83 189.41 122.33 189.41 124.9 189.41 148.29 189.41 148.84 189.41 160.12 189.41 162.63 189.41 166.86 189.41 167.34 189.41 167.34 188.17 167.34 179.06 167.34 173.4 167.34 153.51 167.34 152.71 167.34 136.02 167.34 135.52 167.34 120.69 167.34 120.24 167.34 80.1 167.34 79.65 167.34 69.57 167.34 69.12 167.34 60.71 167.34 60.26 167.34 52.25 167.34 49.97 167.34 29.83 167.34 27.97"/>
    </g>
  </g>
</svg>